<?xml version="1.0" encoding="UTF-8" standalone="no"?>
<!DOCTYPE svg PUBLIC "-//W3C//DTD SVG 1.1//EN" "http://www.w3.org/Graphics/SVG/1.1/DTD/svg11.dtd">
<svg width="100%" height="100%" viewBox="0 0 1465 2764" version="1.1" xmlns="http://www.w3.org/2000/svg" xmlns:xlink="http://www.w3.org/1999/xlink" xml:space="preserve" xmlns:serif="http://www.serif.com/" style="fill-rule:evenodd;clip-rule:evenodd;stroke-linecap:round;stroke-linejoin:round;stroke-miterlimit:1.5;">
    <g id="WHITE">
        <g id="LED-Drill-Spot" serif:id="LED Drill Spot" transform="matrix(1,0,0,1,20.6533,347.244)">
            <path d="M261.024,2003.15C267.542,2003.15 272.835,2008.44 272.835,2014.96C272.835,2021.48 267.542,2026.77 261.024,2026.77C254.505,2026.77 249.213,2021.48 249.213,2014.96C249.213,2008.44 254.505,2003.15 261.024,2003.15ZM261.024,1955.91C293.617,1955.91 320.079,1982.37 320.079,2014.96C320.079,2047.55 293.617,2074.02 261.024,2074.02C228.43,2074.02 201.969,2047.55 201.969,2014.96C201.969,1982.37 228.43,1955.91 261.024,1955.91ZM201.969,2014.96L320.079,2014.96M261.024,2074.02L261.024,1955.91" style="fill:none;stroke:rgb(150,146,146);stroke-width:2px;"/>
        </g>
        <g id="Drill-Spot" serif:id="Drill Spot" transform="matrix(1,0,0,1,-97.1664,-10.0455)">
            <path d="M1205.72,391.228C1212.24,391.228 1217.54,396.521 1217.54,403.039C1217.54,409.558 1212.24,414.85 1205.72,414.85C1199.21,414.85 1193.91,409.558 1193.91,403.039C1193.91,396.521 1199.21,391.228 1205.72,391.228ZM1205.72,308.551C1257.87,308.551 1300.21,350.89 1300.21,403.039C1300.21,455.189 1257.87,497.528 1205.72,497.528C1153.58,497.528 1111.24,455.189 1111.24,403.039C1111.24,350.89 1153.58,308.551 1205.72,308.551ZM1111.24,403.039L1300.21,403.039M1205.72,497.528L1205.72,308.551" style="fill:none;stroke:rgb(150,146,146);stroke-width:2px;"/>
        </g>
        <g id="Drill-Spot1" serif:id="Drill Spot" transform="matrix(1,0,0,1,94.9335,-11.0455)">
            <path d="M259.843,391.228C266.361,391.228 271.654,396.521 271.654,403.039C271.654,409.558 266.361,414.85 259.843,414.85C253.324,414.85 248.031,409.558 248.031,403.039C248.031,396.521 253.324,391.228 259.843,391.228ZM259.843,308.551C311.992,308.551 354.331,350.89 354.331,403.039C354.331,455.189 311.992,497.528 259.843,497.528C207.693,497.528 165.354,455.189 165.354,403.039C165.354,350.89 207.693,308.551 259.843,308.551ZM165.354,403.039L354.331,403.039M259.843,497.528L259.843,308.551" style="fill:none;stroke:rgb(150,146,146);stroke-width:2px;"/>
        </g>
        <path d="M681.683,1266.16C680.654,1263.11 680.083,1259.8 680.083,1256.26L680.083,1210.12C680.083,1208.47 680.202,1206.87 680.43,1205.32C679.098,1200.84 676.637,1196.58 672.749,1192.12C665.683,1184.12 658.749,1180.26 648.216,1180.26C640.616,1180.26 635.016,1181.99 630.883,1185.86C626.616,1182.39 621.016,1180.26 613.816,1180.26C595.683,1180.26 587.283,1191.46 587.283,1207.06L587.283,1284.12L594.883,1291.06L612.883,1291.06L612.883,1214.39C612.883,1208.66 616.349,1205.99 621.149,1205.99L621.816,1205.99L621.816,1284.12L629.416,1291.06L647.149,1291.06L647.149,1214.39C647.149,1208.66 650.883,1205.99 655.549,1205.99L656.083,1205.99L656.083,1284.12L663.816,1291.06L681.683,1291.06L681.683,1266.16ZM624.216,1207.06C624.216,1199.99 619.683,1196.53 613.816,1196.53C607.816,1196.53 603.416,1199.99 603.416,1207.06L603.416,1281.73L600.749,1281.73L600.749,1207.06C600.749,1198.79 606.216,1193.86 613.816,1193.86C621.549,1193.86 626.883,1198.79 626.883,1207.06L626.883,1281.73L624.216,1281.73L624.216,1207.06ZM658.483,1207.06C658.483,1199.99 654.083,1196.53 648.216,1196.53C642.216,1196.53 637.816,1199.99 637.816,1207.06L637.816,1281.73L635.016,1281.73L635.016,1207.06C635.016,1198.79 640.616,1193.86 648.216,1193.86C655.949,1193.86 661.149,1198.79 661.149,1207.06L661.149,1281.73L658.483,1281.73L658.483,1207.06ZM669.683,1207.06C669.683,1194.66 662.483,1185.59 648.216,1185.59C641.016,1185.59 635.549,1187.99 631.016,1193.33C626.483,1187.99 621.149,1185.59 613.816,1185.59C599.416,1185.59 592.349,1194.66 592.349,1207.06L592.349,1281.73L589.683,1281.73L589.683,1207.06C589.683,1192.92 597.416,1182.79 613.816,1182.79C621.416,1182.79 627.016,1185.33 630.883,1189.19C634.616,1185.33 640.749,1182.79 648.216,1182.79C664.616,1182.79 672.349,1192.92 672.349,1207.06L672.349,1281.73L669.683,1281.73L669.683,1207.06ZM629.683,1207.06C629.683,1197.33 623.816,1191.06 613.816,1191.06C603.683,1191.06 598.083,1197.33 598.083,1207.06L598.083,1281.73L595.149,1281.73L595.149,1207.06C595.149,1195.99 601.816,1188.26 613.816,1188.26C622.483,1188.26 629.683,1192.92 630.883,1200.26C633.149,1192.12 639.149,1188.26 648.216,1188.26C660.349,1188.26 666.749,1195.99 666.749,1207.06L666.749,1281.73L663.949,1281.73L663.949,1207.06C663.949,1197.33 658.216,1191.06 648.216,1191.06C638.083,1191.06 632.349,1197.33 632.349,1207.06L632.349,1281.73L629.683,1281.73L629.683,1207.06Z" style="fill:rgb(150,146,146);fill-rule:nonzero;"/>
        <path d="M746.083,1272.26L746.083,1209.19C744.533,1203.97 741.522,1199.03 737.283,1193.73C729.816,1184.39 720.349,1180.26 710.216,1180.26C693.549,1180.26 680.083,1192.53 680.083,1210.12L680.083,1256.26C680.083,1266.53 684.883,1274.79 691.683,1280.66C701.683,1289.19 709.149,1292.92 717.549,1292.92C731.138,1292.92 742.475,1284.73 746.083,1272.26ZM737.949,1256.26C737.949,1272.26 725.549,1283.59 710.216,1283.59C694.883,1283.59 682.483,1272.26 682.483,1256.26L682.483,1210.12C682.483,1193.99 694.883,1182.79 710.216,1182.79C725.549,1182.79 737.949,1193.99 737.949,1210.12L737.949,1256.26ZM735.149,1210.12C735.149,1195.19 722.883,1185.59 710.216,1185.59C697.549,1185.59 685.149,1195.19 685.149,1210.12L685.149,1256.26C685.149,1270.92 697.549,1280.66 710.216,1280.66C722.883,1280.66 735.149,1270.92 735.149,1256.26L735.149,1210.12ZM732.349,1256.26C732.349,1269.19 721.549,1277.99 710.216,1277.99C698.883,1277.99 688.083,1269.19 688.083,1256.26L688.083,1210.12C688.083,1197.06 698.883,1188.26 710.216,1188.26C721.549,1188.26 732.349,1197.06 732.349,1210.12L732.349,1256.26ZM729.549,1210.12C729.549,1198.79 721.416,1191.06 710.216,1191.06C699.016,1191.06 690.883,1198.79 690.883,1210.12L690.883,1256.26C690.883,1267.33 699.016,1275.19 710.216,1275.19C721.416,1275.19 729.549,1267.33 729.549,1256.26L729.549,1210.12ZM726.883,1256.26C726.883,1266.26 719.016,1272.39 710.216,1272.39C701.416,1272.39 693.683,1266.26 693.683,1256.26L693.683,1210.12C693.683,1199.99 701.416,1193.86 710.216,1193.86C719.016,1193.86 726.883,1199.99 726.883,1210.12L726.883,1256.26ZM724.083,1210.12C724.083,1201.59 718.749,1196.53 710.216,1196.53C701.683,1196.53 696.349,1201.59 696.349,1210.12L696.349,1256.26C696.349,1264.66 701.683,1269.59 710.216,1269.59C718.749,1269.59 724.083,1264.66 724.083,1256.26L724.083,1210.12ZM721.549,1256.26C721.549,1263.06 717.149,1267.19 710.216,1267.19C706.349,1267.19 705.683,1266.39 705.683,1263.59L705.683,1217.46C705.683,1210.26 710.216,1205.99 717.549,1205.99C721.283,1205.99 721.549,1206.79 721.549,1210.12L721.549,1256.26Z" style="fill:rgb(150,146,146);fill-rule:nonzero;"/>
        <path d="M812.996,1264.21C812.304,1261.69 811.949,1259.05 811.949,1256.26L811.949,1211.35C810.358,1205.86 807.189,1200.65 802.483,1195.33C794.883,1186.66 786.616,1181.99 776.483,1181.99L746.083,1181.99L746.083,1284.12L753.816,1291.06L783.816,1291.06C799.536,1291.06 811.52,1279.85 812.996,1264.21ZM803.683,1253.59C803.683,1269.73 792.083,1281.73 776.483,1281.73L748.616,1281.73L748.616,1184.39L776.483,1184.39C792.083,1184.39 803.683,1196.39 803.683,1212.53L803.683,1253.59ZM751.283,1278.92L775.816,1278.92C790.216,1278.92 801.016,1267.99 801.016,1254.39L801.016,1211.86C801.016,1198.26 790.216,1187.33 775.816,1187.33L751.283,1187.33L751.283,1278.92ZM798.349,1254.39C798.349,1266.26 788.616,1276.12 776.483,1276.12L753.949,1276.12L753.949,1190.12L776.483,1190.12C788.616,1190.12 798.349,1199.99 798.349,1211.86L798.349,1254.39ZM756.883,1273.46L775.816,1273.46C787.149,1273.46 795.549,1265.19 795.549,1253.59L795.549,1212.53C795.549,1201.06 787.149,1192.79 775.816,1192.79L756.883,1192.79L756.883,1273.46ZM792.749,1253.59C792.749,1263.86 785.683,1270.66 776.483,1270.66L759.549,1270.66L759.549,1195.59L776.483,1195.59C785.683,1195.59 792.749,1202.39 792.749,1212.53L792.749,1253.59ZM762.349,1267.99L775.816,1267.99C784.349,1267.99 789.949,1262.92 789.949,1254.39L789.949,1211.86C789.949,1203.19 784.349,1198.39 775.816,1198.39L762.349,1198.39L762.349,1267.99ZM771.816,1207.73L783.149,1207.73C787.016,1207.73 787.549,1208.12 787.549,1211.86L787.549,1254.39C787.549,1261.33 782.883,1265.46 775.816,1265.46L771.816,1265.46L771.816,1207.73Z" style="fill:rgb(150,146,146);fill-rule:nonzero;"/>
        <g transform="matrix(1,0,0,1,-630.086,468.542)">
            <path d="M1483.63,787.717C1483.63,794.517 1479.24,798.65 1472.17,798.65C1468.3,798.65 1467.77,797.983 1467.77,795.05L1467.77,781.05L1491.24,781.05L1491.24,763.05L1484.3,755.317L1467.77,755.317L1467.77,748.917C1467.77,741.717 1472.17,737.45 1479.5,737.45C1483.37,737.45 1483.63,738.25 1483.63,741.583L1483.63,746.783L1491.24,753.717L1509.24,753.717L1509.24,748.917C1509.24,740.383 1505.63,733.183 1499.37,725.85C1491.24,716.517 1482.57,711.717 1472.17,711.717C1455.5,711.717 1442.04,723.983 1442.04,741.583L1442.04,787.717C1442.04,797.983 1446.84,806.25 1455.63,813.983C1463.37,820.917 1471.1,824.383 1479.5,824.383C1496.04,824.383 1509.24,812.25 1509.24,795.05L1509.24,790.517L1502.3,782.783L1483.63,782.783L1483.63,787.717ZM1486.04,785.183L1488.7,785.183L1488.7,787.717C1488.7,797.717 1480.84,803.85 1472.17,803.85C1463.5,803.85 1455.63,797.717 1455.63,787.717L1455.63,768.917L1481.9,768.917L1481.9,771.717L1458.3,771.717L1458.3,787.717C1458.3,796.117 1463.63,801.05 1472.17,801.05C1480.7,801.05 1486.04,796.117 1486.04,787.717L1486.04,785.183ZM1458.3,757.717L1481.9,757.717L1481.9,760.65L1455.63,760.65L1455.63,741.583C1455.63,731.45 1463.5,725.317 1472.17,725.317C1480.84,725.317 1488.7,731.45 1488.7,741.583L1488.7,744.383L1486.04,744.383L1486.04,741.583C1486.04,733.05 1480.7,727.983 1472.17,727.983C1463.63,727.983 1458.3,733.05 1458.3,741.583L1458.3,757.717ZM1452.97,763.45L1481.9,763.45L1481.9,766.117L1452.97,766.117L1452.97,787.717C1452.97,798.783 1460.97,806.65 1472.17,806.65C1483.5,806.65 1491.5,798.783 1491.5,787.717L1491.5,785.183L1494.3,785.183L1494.3,787.717C1494.3,800.65 1483.63,809.45 1472.17,809.45C1460.84,809.45 1450.04,800.65 1450.04,787.717L1450.04,741.583C1450.04,728.517 1460.84,719.717 1472.17,719.717C1483.63,719.717 1494.3,728.517 1494.3,741.583L1494.3,744.383L1491.5,744.383L1491.5,741.583C1491.5,730.25 1483.5,722.517 1472.17,722.517C1460.97,722.517 1452.97,730.25 1452.97,741.583L1452.97,763.45ZM1497.1,785.183L1499.77,785.183L1499.77,787.717C1499.77,803.717 1487.63,815.05 1472.17,815.05C1456.84,815.05 1444.57,803.717 1444.57,787.717L1444.57,741.583C1444.57,725.45 1456.84,714.25 1472.17,714.25C1487.63,714.25 1499.77,725.45 1499.77,741.583L1499.77,744.383L1497.1,744.383L1497.1,741.583C1497.1,726.65 1484.84,717.05 1472.17,717.05C1459.5,717.05 1447.24,726.65 1447.24,741.583L1447.24,787.717C1447.24,802.383 1459.5,812.117 1472.17,812.117C1484.84,812.117 1497.1,802.383 1497.1,787.717L1497.1,785.183Z" style="fill:rgb(150,146,146);fill-rule:nonzero;"/>
        </g>
        <path d="M1046.61,717.744L1046.61,696.905C1045.17,694.492 1043.39,692.118 1041.27,689.744C1032.87,680.277 1024.21,675.744 1014.07,675.744C997.274,675.744 983.941,688.011 983.941,705.611L983.941,779.611L991.541,786.544L1009.54,786.544L1009.54,745.077L1033.14,745.077L1033.14,727.077L1026.07,719.344L1009.54,719.344L1009.54,712.944C1009.54,705.744 1014.07,701.477 1021.41,701.477C1025.14,701.477 1025.41,702.277 1025.41,705.611L1025.41,710.811L1033.14,717.744L1046.61,717.744ZM1000.07,777.211L997.407,777.211L997.407,732.944L1023.67,732.944L1023.67,735.744L1000.07,735.744L1000.07,777.211ZM989.007,777.211L986.341,777.211L986.341,705.611C986.341,689.477 998.607,678.277 1014.07,678.277C1029.41,678.277 1041.81,689.477 1041.81,705.611L1041.81,708.411L1038.87,708.411L1038.87,705.611C1038.87,690.677 1026.61,681.077 1014.07,681.077C1001.41,681.077 989.007,690.677 989.007,705.611L989.007,777.211ZM994.741,727.477L1023.67,727.477L1023.67,730.144L994.741,730.144L994.741,777.211L991.807,777.211L991.807,705.611C991.807,692.544 1002.74,683.744 1014.07,683.744C1025.41,683.744 1036.07,692.544 1036.07,705.611L1036.07,708.411L1033.27,708.411L1033.27,705.611C1033.27,694.277 1025.27,686.544 1014.07,686.544C1002.87,686.544 994.741,694.277 994.741,705.611L994.741,727.477ZM1000.07,721.744L1023.67,721.744L1023.67,724.677L997.407,724.677L997.407,705.611C997.407,695.477 1005.27,689.344 1014.07,689.344C1022.74,689.344 1030.47,695.477 1030.47,705.611L1030.47,708.411L1027.81,708.411L1027.81,705.611C1027.81,697.077 1022.61,692.011 1014.07,692.011C1005.54,692.011 1000.07,697.077 1000.07,705.611L1000.07,721.744ZM1049.01,701.737L1049.01,717.744L1051.14,717.744L1051.14,712.944C1051.14,708.991 1050.42,705.295 1049.01,701.737Z" style="fill:rgb(150,146,146);fill-rule:nonzero;"/>
        <g transform="matrix(1,0,0,1,-233.428,-35.9725)">
            <path d="M1321.5,787.717C1321.5,794.517 1317.1,798.65 1310.17,798.65C1306.17,798.65 1305.63,798.383 1305.63,795.05L1305.63,721.183L1298.7,713.45L1280.04,713.45L1280.04,787.717C1280.04,797.983 1284.7,806.383 1293.63,814.117C1301.24,820.917 1309.1,824.383 1317.5,824.383C1333.9,824.383 1347.24,812.25 1347.24,795.05L1347.24,721.183L1340.3,713.45L1321.5,713.45L1321.5,787.717ZM1323.9,715.85L1326.57,715.85L1326.57,787.717C1326.57,797.717 1318.84,803.85 1310.17,803.85C1301.37,803.85 1293.5,797.717 1293.5,787.717L1293.5,715.85L1296.17,715.85L1296.17,787.717C1296.17,796.117 1301.63,801.05 1310.17,801.05C1318.7,801.05 1323.9,796.117 1323.9,787.717L1323.9,715.85ZM1329.37,715.85L1332.17,715.85L1332.17,787.717C1332.17,800.65 1321.5,809.45 1310.17,809.45C1298.84,809.45 1287.9,800.65 1287.9,787.717L1287.9,715.85L1290.84,715.85L1290.84,787.717C1290.84,798.783 1298.97,806.65 1310.17,806.65C1321.37,806.65 1329.37,798.783 1329.37,787.717L1329.37,715.85ZM1334.97,715.85L1337.9,715.85L1337.9,787.717C1337.9,803.717 1325.5,815.05 1310.17,815.05C1294.7,815.05 1282.43,803.717 1282.43,787.717L1282.43,715.85L1285.1,715.85L1285.1,787.717C1285.1,802.383 1297.5,812.117 1310.17,812.117C1322.7,812.117 1334.97,802.383 1334.97,787.717L1334.97,715.85Z" style="fill:rgb(150,146,146);fill-rule:nonzero;"/>
        </g>
        <path d="M1170.74,780.687L1169.54,779.611L1170.74,776.289L1170.74,768.811L1163.81,761.077L1145.94,761.077L1173.41,685.211L1166.61,677.477L1115.41,677.477L1115.41,696.277L1123.01,703.211L1138.74,703.211L1111.14,779.611L1118.87,786.544L1170.74,786.544L1170.74,780.687ZM1161.41,777.211L1114.47,777.211L1144.61,693.877L1117.81,693.877L1117.81,691.077L1148.47,691.077L1118.34,774.677L1161.41,774.677L1161.41,777.211ZM1161.41,771.744L1121.94,771.744L1151.94,688.277L1117.81,688.277L1117.81,685.611L1155.81,685.611L1125.81,769.077L1161.41,769.077L1161.41,771.744ZM1161.41,766.277L1129.27,766.277L1159.41,682.811L1117.81,682.811L1117.81,679.877L1163.27,679.877L1133.01,763.477L1161.41,763.477L1161.41,766.277Z" style="fill:rgb(150,146,146);fill-rule:nonzero;"/>
        <g transform="matrix(1,0,0,1,-233.428,-35.9725)">
            <path d="M1455.63,797.05L1437.77,797.05L1465.24,721.183L1458.43,713.45L1407.24,713.45L1407.24,732.25L1414.84,739.183L1430.57,739.183L1402.97,815.583L1410.7,822.517L1462.57,822.517L1462.57,804.783L1455.63,797.05ZM1453.24,813.183L1406.3,813.183L1436.43,729.85L1409.63,729.85L1409.63,727.05L1440.3,727.05L1410.17,810.65L1453.24,810.65L1453.24,813.183ZM1453.24,807.717L1413.77,807.717L1443.77,724.25L1409.63,724.25L1409.63,721.583L1447.63,721.583L1417.63,805.05L1453.24,805.05L1453.24,807.717ZM1453.24,802.25L1421.1,802.25L1451.24,718.783L1409.63,718.783L1409.63,715.85L1455.1,715.85L1424.84,799.45L1453.24,799.45L1453.24,802.25Z" style="fill:rgb(150,146,146);fill-rule:nonzero;"/>
        </g>
        <path d="M378.864,718.939L378.864,752.156C378.864,762.423 383.664,770.689 392.464,778.423C400.197,785.356 407.931,788.823 416.331,788.823C429.602,788.823 440.726,781.005 444.597,769.026L444.597,780.023L445.397,780.023L452.331,786.956L496.731,786.956L496.731,769.089L489.797,761.356L470.331,761.356L470.331,685.623L463.264,677.889L444.597,677.889L444.597,704.25C442.993,699.41 440.117,694.876 436.197,690.289C428.064,680.956 419.397,676.156 408.997,676.156C399.594,676.156 391.209,680.061 385.687,686.626L385.687,686.625L385.931,685.623L378.997,677.889L360.064,677.889L351.397,720.289L344.197,685.623L337.264,677.889L318.331,677.889L323.644,703.168C322.685,699.056 321.342,695.686 316.731,690.289C308.597,680.956 299.931,676.156 289.531,676.156C272.864,676.156 259.397,688.423 259.397,706.023L259.397,752.156C259.397,762.423 264.197,770.689 272.997,778.423C280.731,785.356 288.464,788.823 296.864,788.823C313.397,788.823 326.597,776.689 326.597,759.489L326.597,754.956L319.664,747.223L300.997,747.223L300.997,752.156C300.997,758.956 296.597,763.089 289.531,763.089C285.664,763.089 285.131,762.423 285.131,759.489L285.131,745.489L308.597,745.489L308.597,727.489L301.664,719.756L285.131,719.756L285.131,713.356C285.131,706.156 289.531,701.889 296.864,701.889C300.731,701.889 300.997,702.689 300.997,706.023L300.997,711.223L308.597,718.156L326.808,718.225L339.797,780.023L347.397,786.956L364.464,786.956L378.864,718.939ZM257.131,761.356L237.664,761.356L237.664,685.623L230.597,677.889L211.931,677.889L211.931,780.023L212.731,780.023L219.664,786.956L264.064,786.956L264.064,769.089L257.131,761.356ZM433.931,749.623L436.597,749.623L436.597,752.156C436.597,768.156 424.464,779.489 408.997,779.489C393.664,779.489 381.397,768.156 381.397,752.156L381.397,706.023C381.397,689.889 393.664,678.689 408.997,678.689C424.464,678.689 436.597,689.889 436.597,706.023L436.597,708.823L433.931,708.823L433.931,706.023C433.931,691.089 421.664,681.489 408.997,681.489C396.331,681.489 384.064,691.089 384.064,706.023L384.064,752.156C384.064,766.823 396.331,776.556 408.997,776.556C421.664,776.556 433.931,766.823 433.931,752.156L433.931,749.623ZM314.464,749.623L317.131,749.623L317.131,752.156C317.131,768.156 304.997,779.489 289.531,779.489C274.197,779.489 261.931,768.156 261.931,752.156L261.931,706.023C261.931,689.889 274.197,678.689 289.531,678.689C304.997,678.689 317.131,689.889 317.131,706.023L317.131,708.823L314.464,708.823L314.464,706.023C314.464,691.089 302.197,681.489 289.531,681.489C276.864,681.489 264.597,691.089 264.597,706.023L264.597,752.156C264.597,766.823 276.864,776.556 289.531,776.556C302.197,776.556 314.464,766.823 314.464,752.156L314.464,749.623ZM254.731,777.623L214.464,777.623L214.464,680.289L217.264,680.289L217.264,774.956L254.731,774.956L254.731,777.623ZM487.397,777.623L447.131,777.623L447.131,680.289L449.931,680.289L449.931,774.956L487.397,774.956L487.397,777.623ZM344.597,777.623L341.797,777.623L321.397,680.289L324.197,680.289L344.597,777.623ZM355.531,777.623L352.864,777.623L373.131,680.289L375.931,680.289L355.531,777.623ZM347.397,777.623L326.864,680.289L329.797,680.289L348.731,771.223L367.664,680.289L370.597,680.289L349.931,777.623L347.397,777.623ZM389.797,727.889L418.731,727.889L418.731,730.556L389.797,730.556L389.797,752.156C389.797,763.223 397.797,771.089 408.997,771.089C420.331,771.089 428.331,763.223 428.331,752.156L428.331,749.623L431.131,749.623L431.131,752.156C431.131,765.089 420.464,773.889 408.997,773.889C397.664,773.889 386.864,765.089 386.864,752.156L386.864,706.023C386.864,692.956 397.664,684.156 408.997,684.156C420.464,684.156 431.131,692.956 431.131,706.023L431.131,708.823L428.331,708.823L428.331,706.023C428.331,694.689 420.331,686.956 408.997,686.956C397.797,686.956 389.797,694.689 389.797,706.023L389.797,727.889ZM270.331,727.889L299.264,727.889L299.264,730.556L270.331,730.556L270.331,752.156C270.331,763.223 278.331,771.089 289.531,771.089C300.864,771.089 308.864,763.223 308.864,752.156L308.864,749.623L311.664,749.623L311.664,752.156C311.664,765.089 300.997,773.889 289.531,773.889C278.197,773.889 267.397,765.089 267.397,752.156L267.397,706.023C267.397,692.956 278.197,684.156 289.531,684.156C300.997,684.156 311.664,692.956 311.664,706.023L311.664,708.823L308.864,708.823L308.864,706.023C308.864,694.689 300.864,686.956 289.531,686.956C278.331,686.956 270.331,694.689 270.331,706.023L270.331,727.889ZM254.731,772.023L219.931,772.023L219.931,680.289L222.731,680.289L222.731,769.356L254.731,769.356L254.731,772.023ZM487.397,772.023L452.597,772.023L452.597,680.289L455.397,680.289L455.397,769.356L487.397,769.356L487.397,772.023ZM303.397,749.623L306.064,749.623L306.064,752.156C306.064,762.156 298.197,768.289 289.531,768.289C280.864,768.289 272.997,762.156 272.997,752.156L272.997,733.356L299.264,733.356L299.264,736.156L275.664,736.156L275.664,752.156C275.664,760.556 280.997,765.489 289.531,765.489C298.064,765.489 303.397,760.556 303.397,752.156L303.397,749.623ZM422.864,749.623L425.531,749.623L425.531,752.156C425.531,762.156 417.664,768.289 408.997,768.289C400.331,768.289 392.464,762.156 392.464,752.156L392.464,733.356L418.731,733.356L418.731,736.156L395.131,736.156L395.131,752.156C395.131,760.556 400.464,765.489 408.997,765.489C417.531,765.489 422.864,760.556 422.864,752.156L422.864,749.623ZM487.397,766.556L458.197,766.556L458.197,680.289L460.864,680.289L460.864,763.889L487.397,763.889L487.397,766.556ZM254.731,766.556L225.531,766.556L225.531,680.289L228.197,680.289L228.197,763.889L254.731,763.889L254.731,766.556ZM428.064,718.156L444.597,718.156L444.597,753.32L439.131,747.223L420.464,747.223L420.464,752.156C420.464,758.956 416.064,763.089 408.997,763.089C405.131,763.089 404.597,762.423 404.597,759.489L404.597,745.489L428.064,745.489L428.064,727.489L421.131,719.756L404.597,719.756L404.597,713.356C404.597,706.156 408.997,701.889 416.331,701.889C420.197,701.889 420.464,702.689 420.464,706.023L420.464,711.223L428.064,718.156ZM348.731,758.156L332.597,680.289L335.264,680.289L348.731,745.489L362.197,680.289L364.997,680.289L348.731,758.156ZM395.131,722.156L418.731,722.156L418.731,725.089L392.464,725.089L392.464,706.023C392.464,695.889 400.331,689.756 408.997,689.756C417.664,689.756 425.531,695.889 425.531,706.023L425.531,708.823L422.864,708.823L422.864,706.023C422.864,697.489 417.531,692.423 408.997,692.423C400.464,692.423 395.131,697.489 395.131,706.023L395.131,722.156ZM275.664,722.156L299.264,722.156L299.264,725.089L272.997,725.089L272.997,706.023C272.997,695.889 280.864,689.756 289.531,689.756C298.197,689.756 306.064,695.889 306.064,706.023L306.064,708.823L303.397,708.823L303.397,706.023C303.397,697.489 298.064,692.423 289.531,692.423C280.997,692.423 275.664,697.489 275.664,706.023L275.664,722.156Z" style="fill:rgb(150,146,146);fill-rule:nonzero;"/>
        <path id="Drill-Spot2" serif:id="Drill Spot" d="M742.973,2363.9L894.794,2386.96C882.829,2466.5 814.131,2527.56 731.283,2527.56C648.5,2527.56 579.844,2466.59 567.802,2387.15L719.618,2364.06C720.508,2369.7 725.396,2374.02 731.283,2374.02C737.226,2374.02 742.15,2369.62 742.973,2363.9ZM874.623,2279.76C881.787,2292.18 887.383,2305.62 891.14,2319.8L742.733,2359.3C742.486,2358.32 742.117,2357.39 741.643,2356.53L874.623,2279.76ZM588.257,2279.22L721.194,2356.07C720.636,2356.98 720.199,2357.97 719.905,2359.03L571.51,2319.48C575.321,2305.21 580.995,2291.7 588.257,2279.22ZM816.448,2220.47C827.659,2227.22 838.005,2235.27 847.276,2244.4L739.817,2354.04C739.19,2353.39 738.488,2352.8 737.726,2352.31L816.448,2220.47ZM647.045,2219.92L725.636,2351.83C724.789,2352.29 724.005,2352.86 723.299,2353.5L615.91,2243.8C625.277,2234.67 635.724,2226.64 647.045,2219.92ZM774.034,2202.44C780.251,2204.1 786.325,2206.12 792.238,2208.47L736.062,2351.4C735.652,2351.22 735.229,2351.06 734.797,2350.93L774.034,2202.44ZM689.874,2202.09L728.791,2350.66C728.329,2350.76 727.876,2350.88 727.436,2351.04L671.367,2208.06C677.374,2205.72 683.552,2203.72 689.874,2202.09ZM718.303,2197.35C722.58,2197.02 726.912,2196.85 731.283,2196.85C736.138,2196.85 740.945,2197.06 745.699,2197.47L732.803,2350.49C732.306,2350.43 731.798,2350.39 731.283,2350.39C731.138,2350.39 730.993,2350.4 730.849,2350.4L718.303,2197.35Z" style="fill:none;stroke:rgb(150,146,146);stroke-width:2px;"/>
        <g id="Hole-Dia" serif:id="Hole Dia" transform="matrix(5.59839e-17,-0.914286,0.914286,5.59839e-17,-1352.75,2900.95)">
            <path d="M2077.56,2197.83C2123.19,2197.83 2160.24,2234.87 2160.24,2280.5C2160.24,2326.14 2123.19,2363.18 2077.56,2363.18C2031.93,2363.18 1994.88,2326.14 1994.88,2280.5C1994.88,2234.87 2031.93,2197.83 2077.56,2197.83ZM1994.88,2280.5L2160.24,2280.5M2077.56,2363.18L2077.56,2197.83" style="fill:none;stroke:rgb(150,146,146);stroke-width:2.19px;"/>
        </g>
        <g transform="matrix(1,0,0,1,-51.5203,341.072)">
            <path d="M561.954,1338.02L579.054,1353.62L618.954,1353.62L618.954,1181.12C618.954,1168.22 627.354,1162.22 637.854,1162.22L639.054,1162.22L639.054,1338.02L656.454,1353.62L696.654,1353.62L696.654,1181.12C696.654,1162.82 690.954,1147.52 676.554,1131.02C660.654,1113.02 645.054,1104.32 621.354,1104.32C604.254,1104.32 591.654,1108.22 582.354,1116.92C572.754,1109.12 560.154,1104.32 543.954,1104.32C503.154,1104.32 484.254,1129.52 484.254,1164.62L484.254,1338.02L501.354,1353.62L541.854,1353.62L541.854,1181.12C541.854,1168.22 549.654,1162.22 560.454,1162.22L561.954,1162.22L561.954,1338.02ZM567.354,1164.62C567.354,1148.72 557.154,1140.92 543.954,1140.92C530.454,1140.92 520.554,1148.72 520.554,1164.62L520.554,1332.62L514.554,1332.62L514.554,1164.62C514.554,1146.02 526.854,1134.92 543.954,1134.92C561.354,1134.92 573.354,1146.02 573.354,1164.62L573.354,1332.62L567.354,1332.62L567.354,1164.62ZM644.454,1164.62C644.454,1148.72 634.554,1140.92 621.354,1140.92C607.854,1140.92 597.954,1148.72 597.954,1164.62L597.954,1332.62L591.654,1332.62L591.654,1164.62C591.654,1146.02 604.254,1134.92 621.354,1134.92C638.754,1134.92 650.454,1146.02 650.454,1164.62L650.454,1332.62L644.454,1332.62L644.454,1164.62ZM669.654,1164.62C669.654,1136.72 653.454,1116.32 621.354,1116.32C605.154,1116.32 592.854,1121.72 582.654,1133.72C572.454,1121.72 560.454,1116.32 543.954,1116.32C511.554,1116.32 495.654,1136.72 495.654,1164.62L495.654,1332.62L489.654,1332.62L489.654,1164.62C489.654,1132.82 507.054,1110.02 543.954,1110.02C561.054,1110.02 573.654,1115.72 582.354,1124.42C590.754,1115.72 604.554,1110.02 621.354,1110.02C658.254,1110.02 675.654,1132.82 675.654,1164.62L675.654,1332.62L669.654,1332.62L669.654,1164.62ZM579.654,1164.62C579.654,1142.72 566.454,1128.62 543.954,1128.62C521.154,1128.62 508.554,1142.72 508.554,1164.62L508.554,1332.62L501.954,1332.62L501.954,1164.62C501.954,1139.72 516.954,1122.32 543.954,1122.32C563.454,1122.32 579.654,1132.82 582.354,1149.32C587.454,1131.02 600.954,1122.32 621.354,1122.32C648.654,1122.32 663.054,1139.72 663.054,1164.62L663.054,1332.62L656.754,1332.62L656.754,1164.62C656.754,1142.72 643.854,1128.62 621.354,1128.62C598.554,1128.62 585.654,1142.72 585.654,1164.62L585.654,1332.62L579.654,1332.62L579.654,1164.62Z" style="fill:rgb(150,146,146);fill-rule:nonzero;"/>
        </g>
        <g transform="matrix(1,0,0,1,-51.5203,341.072)">
            <path d="M747.654,1108.22L705.654,1108.22L705.654,1338.02L723.054,1353.62L763.554,1353.62L763.554,1125.62L747.654,1108.22ZM742.254,1332.62L736.254,1332.62L736.254,1113.62L742.254,1113.62L742.254,1332.62ZM730.254,1332.62L723.654,1332.62L723.654,1113.62L730.254,1113.62L730.254,1332.62ZM717.654,1332.62L711.354,1332.62L711.354,1113.62L717.654,1113.62L717.654,1332.62Z" style="fill:rgb(150,146,146);fill-rule:nonzero;"/>
        </g>
        <g transform="matrix(1,0,0,1,-51.5203,341.072)">
            <path d="M789.654,1353.62L830.154,1353.62L830.154,1188.02C830.154,1171.82 840.354,1162.22 856.854,1162.22C865.254,1162.22 865.854,1164.02 865.854,1171.52L865.854,1338.02L883.254,1353.62L923.754,1353.62L923.754,1188.02C923.754,1168.82 915.954,1152.62 900.654,1135.22C882.354,1114.52 863.154,1104.32 840.354,1104.32C802.554,1104.32 772.554,1131.92 772.554,1171.52L772.554,1338.02L789.654,1353.62ZM808.854,1332.62L802.854,1332.62L802.854,1171.52C802.854,1148.72 820.554,1134.92 840.354,1134.92C859.854,1134.92 877.254,1148.72 877.254,1171.52L877.254,1332.62L871.254,1332.62L871.254,1171.52C871.254,1152.32 859.554,1140.92 840.354,1140.92C821.154,1140.92 808.854,1152.32 808.854,1171.52L808.854,1332.62ZM796.854,1332.62L790.254,1332.62L790.254,1171.52C790.254,1142.12 814.854,1122.32 840.354,1122.32C865.854,1122.32 889.854,1142.12 889.854,1171.52L889.854,1332.62L883.554,1332.62L883.554,1171.52C883.554,1146.02 865.554,1128.62 840.354,1128.62C815.154,1128.62 796.854,1146.02 796.854,1171.52L796.854,1332.62ZM783.954,1332.62L777.954,1332.62L777.954,1171.52C777.954,1135.22 805.554,1110.02 840.354,1110.02C874.854,1110.02 902.754,1135.22 902.754,1171.52L902.754,1332.62L896.154,1332.62L896.154,1171.52C896.154,1137.92 868.554,1116.32 840.354,1116.32C811.854,1116.32 783.954,1137.92 783.954,1171.52L783.954,1332.62Z" style="fill:rgb(150,146,146);fill-rule:nonzero;"/>
        </g>
        <g transform="matrix(1,0,0,1,-51.5203,341.072)">
            <path d="M949.854,1353.62L1017.35,1353.62C1055.15,1353.62 1083.35,1324.82 1083.35,1285.82L1083.35,1193.42C1083.35,1173.62 1075.25,1156.22 1059.35,1138.22C1042.25,1118.72 1023.65,1108.22 1000.85,1108.22L932.454,1108.22L932.454,1338.02L949.854,1353.62ZM990.354,1166.12L1015.85,1166.12C1024.55,1166.12 1025.75,1167.02 1025.75,1175.42L1025.75,1271.12C1025.75,1286.72 1015.25,1296.02 999.354,1296.02L990.354,1296.02L990.354,1166.12ZM969.054,1301.72L999.354,1301.72C1018.55,1301.72 1031.15,1290.32 1031.15,1271.12L1031.15,1175.42C1031.15,1155.92 1018.55,1145.12 999.354,1145.12L969.054,1145.12L969.054,1301.72ZM1037.45,1269.32C1037.45,1292.42 1021.55,1307.72 1000.85,1307.72L962.754,1307.72L962.754,1138.82L1000.85,1138.82C1021.55,1138.82 1037.45,1154.12 1037.45,1176.92L1037.45,1269.32ZM956.754,1314.02L999.354,1314.02C1024.85,1314.02 1043.75,1295.42 1043.75,1269.32L1043.75,1176.92C1043.75,1151.12 1024.85,1132.52 999.354,1132.52L956.754,1132.52L956.754,1314.02ZM1050.05,1271.12C1050.05,1297.82 1028.15,1320.02 1000.85,1320.02L950.154,1320.02L950.154,1126.52L1000.85,1126.52C1028.15,1126.52 1050.05,1148.72 1050.05,1175.42L1050.05,1271.12ZM944.154,1326.32L999.354,1326.32C1031.75,1326.32 1056.05,1301.72 1056.05,1271.12L1056.05,1175.42C1056.05,1144.82 1031.75,1120.22 999.354,1120.22L944.154,1120.22L944.154,1326.32ZM1062.05,1269.32C1062.05,1305.62 1035.95,1332.62 1000.85,1332.62L938.154,1332.62L938.154,1113.62L1000.85,1113.62C1035.95,1113.62 1062.05,1140.62 1062.05,1176.92L1062.05,1269.32Z" style="fill:rgb(150,146,146);fill-rule:nonzero;"/>
        </g>
        <g transform="matrix(1,0,0,1,-51.5203,341.072)">
            <path d="M403.704,1533.65C403.704,1548.95 393.804,1558.25 377.904,1558.25C369.204,1558.25 368.004,1556.75 368.004,1550.15L368.004,1518.65L420.804,1518.65L420.804,1478.15L405.204,1460.75L368.004,1460.75L368.004,1446.35C368.004,1430.15 377.904,1420.55 394.404,1420.55C403.104,1420.55 403.704,1422.35 403.704,1429.85L403.704,1441.55L420.804,1457.15L461.304,1457.15L461.304,1446.35C461.304,1427.15 453.204,1410.95 439.104,1394.45C420.804,1373.45 401.304,1362.65 377.904,1362.65C340.404,1362.65 310.104,1390.25 310.104,1429.85L310.104,1533.65C310.104,1556.75 320.904,1575.35 340.704,1592.75C358.104,1608.35 375.504,1616.15 394.404,1616.15C431.604,1616.15 461.304,1588.85 461.304,1550.15L461.304,1539.95L445.704,1522.55L403.704,1522.55L403.704,1533.65ZM409.104,1527.95L415.104,1527.95L415.104,1533.65C415.104,1556.15 397.404,1569.95 377.904,1569.95C358.404,1569.95 340.704,1556.15 340.704,1533.65L340.704,1491.35L399.804,1491.35L399.804,1497.65L346.704,1497.65L346.704,1533.65C346.704,1552.55 358.704,1563.65 377.904,1563.65C397.104,1563.65 409.104,1552.55 409.104,1533.65L409.104,1527.95ZM346.704,1466.15L399.804,1466.15L399.804,1472.75L340.704,1472.75L340.704,1429.85C340.704,1407.05 358.404,1393.25 377.904,1393.25C397.404,1393.25 415.104,1407.05 415.104,1429.85L415.104,1436.15L409.104,1436.15L409.104,1429.85C409.104,1410.65 397.104,1399.25 377.904,1399.25C358.704,1399.25 346.704,1410.65 346.704,1429.85L346.704,1466.15ZM334.704,1479.05L399.804,1479.05L399.804,1485.05L334.704,1485.05L334.704,1533.65C334.704,1558.55 352.704,1576.25 377.904,1576.25C403.404,1576.25 421.404,1558.55 421.404,1533.65L421.404,1527.95L427.704,1527.95L427.704,1533.65C427.704,1562.75 403.704,1582.55 377.904,1582.55C352.404,1582.55 328.104,1562.75 328.104,1533.65L328.104,1429.85C328.104,1400.45 352.404,1380.65 377.904,1380.65C403.704,1380.65 427.704,1400.45 427.704,1429.85L427.704,1436.15L421.404,1436.15L421.404,1429.85C421.404,1404.35 403.404,1386.95 377.904,1386.95C352.704,1386.95 334.704,1404.35 334.704,1429.85L334.704,1479.05ZM434.004,1527.95L440.004,1527.95L440.004,1533.65C440.004,1569.65 412.704,1595.15 377.904,1595.15C343.404,1595.15 315.804,1569.65 315.804,1533.65L315.804,1429.85C315.804,1393.55 343.404,1368.35 377.904,1368.35C412.704,1368.35 440.004,1393.55 440.004,1429.85L440.004,1436.15L434.004,1436.15L434.004,1429.85C434.004,1396.25 406.404,1374.65 377.904,1374.65C349.404,1374.65 321.804,1396.25 321.804,1429.85L321.804,1533.65C321.804,1566.65 349.404,1588.55 377.904,1588.55C406.404,1588.55 434.004,1566.65 434.004,1533.65L434.004,1527.95Z" style="fill:rgb(150,146,146);fill-rule:nonzero;"/>
        </g>
        <g transform="matrix(1,0,0,1,-51.5203,341.072)">
            <path d="M580.104,1611.95L620.604,1611.95L620.604,1546.85C620.604,1528.85 614.604,1512.95 599.604,1498.25C611.304,1488.35 618.804,1473.35 618.804,1449.35C618.804,1428.65 612.204,1413.05 597.804,1396.55C578.904,1375.55 560.604,1366.55 535.704,1366.55L468.504,1366.55L468.504,1596.35L485.904,1611.95L526.404,1611.95L526.404,1518.05L552.204,1518.05C560.904,1518.05 562.704,1520.15 562.704,1530.35L562.704,1596.35L580.104,1611.95ZM526.404,1424.45L552.204,1424.45C561.204,1424.45 563.004,1425.95 563.004,1432.85C563.004,1452.05 551.304,1460.75 535.704,1460.75L526.404,1460.75L526.404,1424.45ZM535.704,1491.35C560.004,1491.35 574.404,1505.75 574.404,1530.35L574.404,1590.95L568.404,1590.95L568.404,1530.35C568.404,1510.55 555.804,1497.05 535.704,1497.05L505.104,1497.05L505.104,1590.95L498.804,1590.95L498.804,1491.35L535.704,1491.35ZM575.304,1481.75C591.204,1492.55 599.304,1510.25 599.304,1530.35L599.304,1590.95L593.004,1590.95L593.004,1530.35C593.004,1509.65 584.604,1492.85 566.004,1481.75C584.904,1471.25 591.504,1455.35 591.504,1432.85C591.504,1398.35 570.204,1378.55 535.704,1378.55L480.204,1378.55L480.204,1590.95L474.204,1590.95L474.204,1371.95L535.704,1371.95C573.504,1371.95 597.804,1393.55 597.804,1432.85C597.804,1458.35 588.804,1472.45 575.304,1481.75ZM535.704,1466.15C554.604,1466.15 568.704,1455.95 568.704,1432.85C568.704,1413.35 556.404,1403.45 535.704,1403.45L505.104,1403.45L505.104,1466.15L535.704,1466.15ZM498.804,1397.15L535.704,1397.15C560.904,1397.15 574.404,1410.95 574.404,1432.85C574.404,1458.95 558.504,1472.45 535.704,1472.45L498.804,1472.45L498.804,1397.15ZM535.704,1478.75C564.804,1478.75 580.404,1458.65 580.404,1432.85C580.404,1407.65 564.204,1390.85 535.704,1390.85L492.804,1390.85L492.804,1478.75L535.704,1478.75ZM492.804,1484.75L492.804,1590.95L486.204,1590.95L486.204,1384.85L535.704,1384.85C566.904,1384.85 586.104,1403.75 586.104,1432.85C586.104,1458.35 573.204,1476.05 553.104,1481.75C575.004,1487.75 587.004,1507.85 587.004,1530.35L587.004,1590.95L580.404,1590.95L580.404,1530.35C580.404,1504.85 563.004,1484.75 535.704,1484.75L492.804,1484.75Z" style="fill:rgb(150,146,146);fill-rule:nonzero;"/>
        </g>
        <g transform="matrix(1,0,0,1,-51.5203,341.072)">
            <path d="M645.504,1611.95L686.004,1611.95L686.004,1518.35L721.704,1518.35L721.704,1596.35L739.104,1611.95L779.604,1611.95L779.604,1446.35C779.604,1428.35 771.804,1411.55 757.104,1395.05C737.904,1373.75 718.104,1362.65 695.604,1362.65C658.404,1362.65 628.404,1391.45 628.404,1429.85L628.404,1596.35L645.504,1611.95ZM686.004,1445.75C686.004,1430.45 695.904,1419.65 712.104,1419.65C720.504,1419.65 721.704,1421.15 721.704,1429.25L721.704,1460.45L686.004,1460.45L686.004,1445.75ZM733.104,1590.95L727.104,1590.95L727.104,1497.35L664.704,1497.35L664.704,1590.95L658.704,1590.95L658.704,1491.35L733.104,1491.35L733.104,1590.95ZM758.604,1590.95L752.004,1590.95L752.004,1429.25C752.004,1400.45 725.304,1373.75 695.904,1373.75C667.704,1373.75 639.804,1399.85 639.804,1429.25L639.804,1590.95L633.804,1590.95L633.804,1429.85C633.804,1394.75 661.404,1368.35 695.604,1368.35C729.804,1368.35 758.604,1395.65 758.604,1429.85L758.604,1590.95ZM733.104,1472.45L658.704,1472.45L658.704,1430.45C658.704,1408.85 674.304,1392.05 695.604,1392.05C717.504,1392.05 733.104,1408.85 733.104,1430.45L733.104,1472.45ZM727.104,1466.15L727.104,1429.25C727.104,1410.05 714.204,1398.35 695.604,1398.35C676.704,1398.35 664.704,1410.95 664.704,1429.25L664.704,1466.15L727.104,1466.15ZM745.704,1590.95L739.704,1590.95L739.704,1484.75L652.404,1484.75L652.404,1590.95L646.104,1590.95L646.104,1430.45C646.104,1401.65 668.904,1379.15 695.604,1379.15C723.804,1379.15 745.704,1403.45 745.704,1429.25L745.704,1590.95ZM739.704,1478.75L739.704,1430.45C739.704,1405.85 719.604,1386.05 695.604,1386.05C672.204,1386.05 652.404,1405.55 652.404,1429.25L652.404,1478.75L739.704,1478.75Z" style="fill:rgb(150,146,146);fill-rule:nonzero;"/>
        </g>
        <g transform="matrix(1,0,0,1,-51.5203,341.072)">
            <path d="M845.904,1507.55C858.204,1511.75 870.204,1512.65 881.004,1517.15C882.204,1521.05 883.104,1525.55 883.104,1530.95C883.104,1546.55 871.104,1558.85 854.904,1558.85C845.604,1558.85 843.504,1556.75 843.504,1544.45L827.904,1527.35L785.304,1527.35C786.204,1552.85 797.604,1573.25 818.904,1592.45C836.604,1608.65 853.404,1616.15 871.404,1616.15C910.104,1616.15 939.804,1584.65 939.804,1547.15C939.804,1523.75 930.504,1505.75 915.204,1490.45C896.904,1472.15 884.904,1464.05 860.304,1458.05C855.804,1456.85 851.004,1455.95 844.104,1453.85C843.504,1451.75 843.504,1449.65 843.504,1446.95C843.504,1430.75 853.704,1420.55 872.304,1420.55C878.604,1420.55 879.804,1426.25 879.804,1436.75L897.204,1452.35L938.004,1452.35C938.004,1430.45 929.304,1411.55 912.504,1392.65C894.504,1371.95 875.904,1362.65 855.804,1362.65C817.104,1362.65 787.404,1390.55 787.404,1430.45C787.404,1459.55 797.904,1473.35 815.004,1487.15C825.204,1495.25 833.904,1502.75 845.904,1507.55ZM918.504,1530.95C918.504,1565.75 890.904,1595.15 854.904,1595.15C821.304,1595.15 792.504,1568.75 791.004,1532.75L797.304,1532.75C797.604,1564.55 824.304,1589.15 854.904,1589.15C887.904,1589.15 912.504,1562.45 912.504,1530.95C912.504,1509.35 904.704,1493.75 889.704,1482.35C874.704,1470.35 858.504,1470.65 842.304,1465.25C825.204,1459.25 816.504,1447.85 816.504,1430.45C816.504,1410.05 831.204,1392.35 855.804,1392.35C877.104,1392.35 890.604,1409.15 891.804,1431.05L885.204,1431.05C885.204,1411.85 874.104,1399.55 855.804,1399.55C834.204,1399.55 822.504,1411.25 822.504,1430.45C822.504,1446.05 829.104,1454.75 844.704,1459.55C860.904,1464.95 878.304,1465.85 893.604,1477.55C910.704,1490.45 918.504,1506.35 918.504,1530.95ZM910.404,1431.05C910.404,1400.15 886.404,1374.35 855.804,1374.35C823.404,1374.35 798.804,1398.05 798.804,1430.45C798.804,1457.15 812.004,1473.05 833.604,1481.45C848.604,1486.85 865.704,1485.65 879.504,1495.85C890.304,1503.65 894.804,1515.05 894.804,1530.95C894.804,1552.85 878.604,1570.85 854.904,1570.85C835.704,1570.85 816.204,1553.75 815.904,1532.75L822.504,1532.75C822.504,1551.95 834.504,1564.25 854.904,1564.25C874.404,1564.25 888.504,1549.85 888.504,1530.95C888.504,1516.55 885.204,1507.55 875.304,1500.35C862.404,1491.35 842.004,1491.35 830.904,1486.55C807.204,1476.95 792.804,1461.95 792.804,1430.45C792.804,1393.85 820.404,1368.35 855.804,1368.35C889.104,1368.35 917.004,1394.75 917.004,1431.05L910.404,1431.05ZM898.404,1431.05C898.404,1405.85 879.504,1386.95 855.504,1386.95C829.404,1386.95 810.504,1404.35 810.504,1430.45C810.504,1450.55 821.304,1463.45 839.304,1469.75C855.804,1475.75 872.004,1475.45 886.404,1486.25C900.204,1496.75 907.404,1511.15 907.404,1530.95C907.404,1559.15 883.404,1583.45 854.904,1583.45C828.204,1583.45 804.804,1560.35 803.604,1532.75L809.904,1532.75C809.904,1557.35 829.704,1577.15 854.904,1577.15C879.504,1577.15 900.504,1555.85 900.504,1530.95C900.504,1513.55 894.504,1500.65 882.504,1491.35C869.004,1480.55 852.204,1482.35 836.304,1475.75C817.104,1468.25 804.204,1453.55 804.204,1430.45C804.204,1401.05 826.404,1379.75 855.804,1379.75C882.804,1379.75 903.804,1403.75 904.704,1431.05L898.404,1431.05Z" style="fill:rgb(150,146,146);fill-rule:nonzero;"/>
        </g>
        <g transform="matrix(1,0,0,1,-51.5203,341.072)">
            <path d="M1040.6,1533.65C1040.6,1548.95 1030.7,1558.25 1014.8,1558.25C1006.1,1558.25 1004.9,1556.75 1004.9,1550.15L1004.9,1518.65L1057.7,1518.65L1057.7,1478.15L1042.1,1460.75L1004.9,1460.75L1004.9,1446.35C1004.9,1430.15 1014.8,1420.55 1031.3,1420.55C1040,1420.55 1040.6,1422.35 1040.6,1429.85L1040.6,1441.55L1057.7,1457.15L1098.2,1457.15L1098.2,1446.35C1098.2,1427.15 1090.1,1410.95 1076,1394.45C1057.7,1373.45 1038.2,1362.65 1014.8,1362.65C977.304,1362.65 947.004,1390.25 947.004,1429.85L947.004,1533.65C947.004,1556.75 957.804,1575.35 977.604,1592.75C995.004,1608.35 1012.4,1616.15 1031.3,1616.15C1068.5,1616.15 1098.2,1588.85 1098.2,1550.15L1098.2,1539.95L1082.6,1522.55L1040.6,1522.55L1040.6,1533.65ZM1046,1527.95L1052,1527.95L1052,1533.65C1052,1556.15 1034.3,1569.95 1014.8,1569.95C995.304,1569.95 977.604,1556.15 977.604,1533.65L977.604,1491.35L1036.7,1491.35L1036.7,1497.65L983.604,1497.65L983.604,1533.65C983.604,1552.55 995.604,1563.65 1014.8,1563.65C1034,1563.65 1046,1552.55 1046,1533.65L1046,1527.95ZM983.604,1466.15L1036.7,1466.15L1036.7,1472.75L977.604,1472.75L977.604,1429.85C977.604,1407.05 995.304,1393.25 1014.8,1393.25C1034.3,1393.25 1052,1407.05 1052,1429.85L1052,1436.15L1046,1436.15L1046,1429.85C1046,1410.65 1034,1399.25 1014.8,1399.25C995.604,1399.25 983.604,1410.65 983.604,1429.85L983.604,1466.15ZM971.604,1479.05L1036.7,1479.05L1036.7,1485.05L971.604,1485.05L971.604,1533.65C971.604,1558.55 989.604,1576.25 1014.8,1576.25C1040.3,1576.25 1058.3,1558.55 1058.3,1533.65L1058.3,1527.95L1064.6,1527.95L1064.6,1533.65C1064.6,1562.75 1040.6,1582.55 1014.8,1582.55C989.304,1582.55 965.004,1562.75 965.004,1533.65L965.004,1429.85C965.004,1400.45 989.304,1380.65 1014.8,1380.65C1040.6,1380.65 1064.6,1400.45 1064.6,1429.85L1064.6,1436.15L1058.3,1436.15L1058.3,1429.85C1058.3,1404.35 1040.3,1386.95 1014.8,1386.95C989.604,1386.95 971.604,1404.35 971.604,1429.85L971.604,1479.05ZM1070.9,1527.95L1076.9,1527.95L1076.9,1533.65C1076.9,1569.65 1049.6,1595.15 1014.8,1595.15C980.304,1595.15 952.704,1569.65 952.704,1533.65L952.704,1429.85C952.704,1393.55 980.304,1368.35 1014.8,1368.35C1049.6,1368.35 1076.9,1393.55 1076.9,1429.85L1076.9,1436.15L1070.9,1436.15L1070.9,1429.85C1070.9,1396.25 1043.3,1374.65 1014.8,1374.65C986.304,1374.65 958.704,1396.25 958.704,1429.85L958.704,1533.65C958.704,1566.65 986.304,1588.55 1014.8,1588.55C1043.3,1588.55 1070.9,1566.65 1070.9,1533.65L1070.9,1527.95Z" style="fill:rgb(150,146,146);fill-rule:nonzero;"/>
        </g>
        <g transform="matrix(1,0,0,1,-51.5203,341.072)">
            <path d="M1217,1611.95L1257.5,1611.95L1257.5,1546.85C1257.5,1528.85 1251.5,1512.95 1236.5,1498.25C1248.2,1488.35 1255.7,1473.35 1255.7,1449.35C1255.7,1428.65 1249.1,1413.05 1234.7,1396.55C1215.8,1375.55 1197.5,1366.55 1172.6,1366.55L1105.4,1366.55L1105.4,1596.35L1122.8,1611.95L1163.3,1611.95L1163.3,1518.05L1189.1,1518.05C1197.8,1518.05 1199.6,1520.15 1199.6,1530.35L1199.6,1596.35L1217,1611.95ZM1163.3,1424.45L1189.1,1424.45C1198.1,1424.45 1199.9,1425.95 1199.9,1432.85C1199.9,1452.05 1188.2,1460.75 1172.6,1460.75L1163.3,1460.75L1163.3,1424.45ZM1172.6,1491.35C1196.9,1491.35 1211.3,1505.75 1211.3,1530.35L1211.3,1590.95L1205.3,1590.95L1205.3,1530.35C1205.3,1510.55 1192.7,1497.05 1172.6,1497.05L1142,1497.05L1142,1590.95L1135.7,1590.95L1135.7,1491.35L1172.6,1491.35ZM1212.2,1481.75C1228.1,1492.55 1236.2,1510.25 1236.2,1530.35L1236.2,1590.95L1229.9,1590.95L1229.9,1530.35C1229.9,1509.65 1221.5,1492.85 1202.9,1481.75C1221.8,1471.25 1228.4,1455.35 1228.4,1432.85C1228.4,1398.35 1207.1,1378.55 1172.6,1378.55L1117.1,1378.55L1117.1,1590.95L1111.1,1590.95L1111.1,1371.95L1172.6,1371.95C1210.4,1371.95 1234.7,1393.55 1234.7,1432.85C1234.7,1458.35 1225.7,1472.45 1212.2,1481.75ZM1172.6,1466.15C1191.5,1466.15 1205.6,1455.95 1205.6,1432.85C1205.6,1413.35 1193.3,1403.45 1172.6,1403.45L1142,1403.45L1142,1466.15L1172.6,1466.15ZM1135.7,1397.15L1172.6,1397.15C1197.8,1397.15 1211.3,1410.95 1211.3,1432.85C1211.3,1458.95 1195.4,1472.45 1172.6,1472.45L1135.7,1472.45L1135.7,1397.15ZM1172.6,1478.75C1201.7,1478.75 1217.3,1458.65 1217.3,1432.85C1217.3,1407.65 1201.1,1390.85 1172.6,1390.85L1129.7,1390.85L1129.7,1478.75L1172.6,1478.75ZM1129.7,1484.75L1129.7,1590.95L1123.1,1590.95L1123.1,1384.85L1172.6,1384.85C1203.8,1384.85 1223,1403.75 1223,1432.85C1223,1458.35 1210.1,1476.05 1190,1481.75C1211.9,1487.75 1223.9,1507.85 1223.9,1530.35L1223.9,1590.95L1217.3,1590.95L1217.3,1530.35C1217.3,1504.85 1199.9,1484.75 1172.6,1484.75L1129.7,1484.75Z" style="fill:rgb(150,146,146);fill-rule:nonzero;"/>
        </g>
        <path d="M1464.57,2167.18L731.816,2362.2L1464.57,2473.5L1464.57,2167.18ZM731.816,2362.2L0,2473.5L0,2167.18L731.816,2362.2ZM731.816,2362.2L631.699,1980L700.486,1980L731.816,2362.2ZM731.816,2362.2L764.025,1980L832.813,1980L731.816,2362.2ZM731.816,2362.2L882.027,1980L960.037,1980L731.816,2362.2ZM1229.28,1854.66L1229.28,1950.05C1229.28,1966.58 1215.86,1980 1199.33,1980L1106.43,1980L731.816,2362.2L1464.57,1939.19L1464.57,1614.6L1229.28,1854.66ZM237.153,1856.87L237.153,1950.05C237.153,1966.58 250.575,1980 267.106,1980L357.684,1980L731.816,2362.2L0,1939.19L0,1614.6L237.153,1856.87ZM731.816,2362.2L504.109,1980L581.933,1980L731.816,2362.2ZM1138.89,1680.47L1465.28,1133.86L1465.28,495.936L1058.01,1532.22L1058.01,1672.54C1058.01,1675.29 1057.61,1677.96 1056.86,1680.47L1138.89,1680.47ZM406.041,1531.47L406.041,1672.54C406.041,1675.29 406.441,1677.96 407.187,1680.47L325.658,1680.47L0,1133.86L0,496.063L406.041,1531.47ZM485.421,1421.57L654.712,1421.57L644.68,1299.19L593.374,1299.19C586.464,1299.19 580.854,1293.58 580.854,1286.67L580.854,1186.51C580.854,1179.6 586.464,1173.99 593.374,1173.99L634.417,1173.99L538.158,-0.312L112.962,-0.312L288.519,669.891L490.63,669.891C497.54,669.891 503.15,675.501 503.15,682.411L503.15,782.568C503.15,789.478 497.54,795.088 490.63,795.088L321.314,795.088L485.421,1421.57ZM811.085,1421.57L821.399,1299.19L873.059,1299.19C879.968,1299.19 885.578,1293.58 885.578,1286.67L885.578,1186.51C885.578,1179.6 879.968,1173.99 873.059,1173.99L831.949,1173.99L930.911,-0.312L1356.11,-0.312L1179.12,669.479L990.472,669.479C983.563,669.479 977.953,675.089 977.953,681.999L977.953,782.156C977.953,789.066 983.563,794.676 990.472,794.676L1146.03,794.676L980.376,1421.57L811.085,1421.57ZM1108.56,298.506C1160.71,298.506 1203.05,340.844 1203.05,392.994C1203.05,445.143 1160.71,487.482 1108.56,487.482C1056.41,487.482 1014.07,445.143 1014.07,392.994C1014.07,340.844 1056.41,298.506 1108.56,298.506ZM354.776,297.506C406.926,297.506 449.264,339.844 449.264,391.994C449.264,444.143 406.926,486.482 354.776,486.482C302.627,486.482 260.288,444.143 260.288,391.994C260.288,339.844 302.627,297.506 354.776,297.506ZM281.677,2303.15C314.27,2303.15 340.732,2329.61 340.732,2362.2C340.732,2394.8 314.27,2421.26 281.677,2421.26C249.084,2421.26 222.622,2394.8 222.622,2362.2C222.622,2329.61 249.084,2303.15 281.677,2303.15ZM281.677,2421.26L281.677,2303.15" style="fill:rgb(150,146,146);"/>
    </g>
    <g id="COLOR">
        <path d="M1464.57,2167.18L731.816,2362.2L1464.57,2473.5L1464.57,2167.18ZM731.816,2362.2L0,2473.5L0,2167.18L731.816,2362.2ZM731.816,2362.2L631.699,1980L700.486,1980L731.816,2362.2ZM731.816,2362.2L764.025,1980L832.813,1980L731.816,2362.2ZM731.816,2362.2L882.027,1980L960.037,1980L731.816,2362.2ZM1229.28,1854.66L1229.28,1950.05C1229.28,1966.58 1215.86,1980 1199.33,1980L1106.43,1980L731.816,2362.2L1464.57,1939.19L1464.57,1614.6L1229.28,1854.66ZM237.153,1856.87L237.153,1950.05C237.153,1966.58 250.575,1980 267.106,1980L357.684,1980L731.816,2362.2L0,1939.19L0,1614.6L237.153,1856.87ZM731.816,2362.2L504.109,1980L581.933,1980L731.816,2362.2ZM1138.89,1680.47L1465.28,1133.86L1465.28,495.936L1058.01,1532.22L1058.01,1672.54C1058.01,1675.29 1057.61,1677.96 1056.86,1680.47L1138.89,1680.47ZM406.041,1531.47L406.041,1672.54C406.041,1675.29 406.441,1677.96 407.187,1680.47L325.658,1680.47L0,1133.86L0,496.063L406.041,1531.47ZM485.421,1421.57L654.712,1421.57L644.68,1299.19L593.374,1299.19C586.464,1299.19 580.854,1293.58 580.854,1286.67L580.854,1186.51C580.854,1179.6 586.464,1173.99 593.374,1173.99L634.417,1173.99L538.158,-0.312L112.962,-0.312L288.519,669.891L490.63,669.891C497.54,669.891 503.15,675.501 503.15,682.411L503.15,782.568C503.15,789.478 497.54,795.088 490.63,795.088L321.314,795.088L485.421,1421.57ZM811.085,1421.57L821.399,1299.19L873.059,1299.19C879.968,1299.19 885.578,1293.58 885.578,1286.67L885.578,1186.51C885.578,1179.6 879.968,1173.99 873.059,1173.99L831.949,1173.99L930.911,-0.312L1356.11,-0.312L1179.12,669.479L990.472,669.479C983.563,669.479 977.953,675.089 977.953,681.999L977.953,782.156C977.953,789.066 983.563,794.676 990.472,794.676L1146.03,794.676L980.376,1421.57L811.085,1421.57ZM1108.56,298.506C1160.71,298.506 1203.05,340.844 1203.05,392.994C1203.05,445.143 1160.71,487.482 1108.56,487.482C1056.41,487.482 1014.07,445.143 1014.07,392.994C1014.07,340.844 1056.41,298.506 1108.56,298.506ZM354.776,297.506C406.926,297.506 449.264,339.844 449.264,391.994C449.264,444.143 406.926,486.482 354.776,486.482C302.627,486.482 260.288,444.143 260.288,391.994C260.288,339.844 302.627,297.506 354.776,297.506ZM281.677,2303.15C314.27,2303.15 340.732,2329.61 340.732,2362.2C340.732,2394.8 314.27,2421.26 281.677,2421.26C249.084,2421.26 222.622,2394.8 222.622,2362.2C222.622,2329.61 249.084,2303.15 281.677,2303.15ZM281.677,2421.26L281.677,2303.15" style="fill:rgb(255,182,66);"/>
    </g>
</svg>
