<?xml version="1.0" encoding="UTF-8" standalone="no"?>
<!DOCTYPE svg PUBLIC "-//W3C//DTD SVG 1.1//EN" "http://www.w3.org/Graphics/SVG/1.1/DTD/svg11.dtd">
<svg width="100%" height="100%" viewBox="0 0 1323 2563" version="1.1" xmlns="http://www.w3.org/2000/svg" xmlns:xlink="http://www.w3.org/1999/xlink" xml:space="preserve" xmlns:serif="http://www.serif.com/" style="fill-rule:evenodd;clip-rule:evenodd;stroke-linecap:round;stroke-linejoin:round;stroke-miterlimit:1.5;">
    <rect x="0" y="0" width="1322.83" height="2562.99"/>
    <g transform="matrix(1,0,0,1.07221,0,-177.458)">
        <path d="M35.433,2077.8L369.836,2077L369.836,2324.08C369.836,2354.76 396.5,2379.63 429.393,2379.63L590.551,2379.63L590.551,2500.8C590.551,2500.8 287.889,2500.43 129.531,2500.23C77.542,2500.16 35.433,2460.84 35.433,2412.35L35.433,2077.8Z" style="fill:rgb(204,154,204);stroke:black;stroke-width:0.96px;"/>
    </g>
    <g transform="matrix(0.250978,0,0,1.01902,844.615,-47.6322)">
        <path d="M1811.3,2421.88C1811.3,2396.78 1728.7,2376.44 1626.81,2376.44L636.262,2376.44L636.262,2503.94L1626.81,2503.94C1728.7,2503.94 1811.3,2483.59 1811.3,2458.5C1811.3,2446.6 1811.3,2433.78 1811.3,2421.88Z" style="fill:rgb(204,154,204);"/>
    </g>
    <g transform="matrix(-1,0,0,1,1695.45,862.865)">
        <path d="M401.575,354.331L603.928,354.331C655.931,354.331 698.088,396.488 698.088,448.491L698.088,1015.09L591.789,1015.09L591.789,767.55C591.789,751.932 585.585,736.953 574.541,725.909C563.497,714.866 548.519,708.661 532.901,708.661C477.109,708.661 401.797,708.661 401.797,708.661L401.575,354.331Z" style="fill:rgb(204,102,153);"/>
    </g>
    <g transform="matrix(1,0,0,1,214.317,862.865)">
        <path d="M180.592,354.331L665.619,354.331C690.532,354.331 714.425,364.227 732.041,381.844C749.658,399.46 759.554,423.353 759.554,448.266L759.554,1015.09L661.417,1015.09L661.417,767.124C661.417,751.619 655.258,736.749 644.294,725.785C633.33,714.821 618.46,708.661 602.954,708.661C474.866,708.661 180.814,708.661 180.814,708.661L180.592,354.331Z" style="fill:rgb(204,154,204);"/>
    </g>
    <g transform="matrix(3.17564,0,0,1.77368,-1339.62,-1457.61)">
        <path d="M813.841,1960.18C813.841,1942.43 809.903,1925.4 802.892,1912.85C795.882,1900.3 786.374,1893.25 776.46,1893.25L590.685,1893.25L590.685,2053.07L776.46,2053.07C786.374,2053.07 795.882,2046.02 802.892,2033.47C809.903,2020.91 813.841,2003.89 813.841,1986.14L813.841,1960.18Z" style="fill:rgb(204,102,153);"/>
    </g>
    <g transform="matrix(1,0,0,1,109.071,67.6998)">
        <text x="781.442px" y="2056.84px" style="font-family:'Okuda';font-size:250px;">F<tspan x="847.971px 878.488px " y="2056.84px 2056.84px ">IR</tspan>E</text>
    </g>
    <path d="M35.433,2027.72L35.433,177.328C35.433,145.996 47.882,115.948 70.04,93.797C92.199,71.646 122.25,59.207 153.582,59.217C316.583,59.27 590.551,59.36 590.551,59.36L590.685,188.976C590.685,188.976 542.055,188.914 490.727,188.849C425.508,188.765 372.565,241.559 372.466,306.778C371.845,712.953 369.836,2027.72 369.836,2027.72" style="fill:rgb(253,157,3);"/>
    <g transform="matrix(1,0,0,1,536.412,7.10543e-15)">
        <path d="M597.447,59.22L596.426,188.976L714.289,188.976C727.155,188.976 739.494,183.865 748.592,174.767C757.69,165.67 762.801,153.33 762.801,140.464L762.801,107.733C762.801,94.866 757.69,82.527 748.592,73.429C739.494,64.332 727.155,59.22 714.289,59.22L597.447,59.22Z" style="fill:rgb(253,157,3);"/>
    </g>
    <g transform="matrix(1,0,0,1,-86.1817,20.7798)">
        <text x="702.648px" y="152.757px" style="font-family:'Okuda';font-size:150px;fill:rgb(253,157,3);">PHASE<tspan x="922.009px 965.954px " y="152.757px 152.757px ">R </tspan>ARRA<tspan x="1165.83px " y="152.757px ">Y</tspan></text>
    </g>
    <g transform="matrix(1,0,0,1,-86.1817,2336.76)">
        <text x="702.648px" y="152.757px" style="font-family:'Okuda';font-size:150px;fill:rgb(204,154,204);">NCC-20145</text>
    </g>
    <g transform="matrix(1.68067,0,0,1.68067,-49.5201,128.22)">
        <g transform="matrix(0.829772,0,0,0.834094,214.86,679.165)">
            <ellipse cx="160.52" cy="551.031" rx="101.631" ry="101.105" style="fill:none;stroke:rgb(235,235,235);stroke-width:2.98px;"/>
        </g>
        <path d="M263.724,1138.78L432.386,1138.78" style="fill:none;stroke:rgb(235,235,235);stroke-width:2.48px;"/>
        <path d="M348.055,1223.11L348.055,1054.45" style="fill:none;stroke:rgb(235,235,235);stroke-width:2.48px;"/>
    </g>
    <g transform="matrix(1,0,0,1,-271.826,1188.37)">
        <text x="689.668px" y="152.757px" style="font-family:'Okuda';font-size:150px;">BE<tspan x="773.53px 821.138px " y="152.757px 152.757px ">AM</tspan> WID<tspan x="1045.99px " y="152.757px ">T</tspan>H</text>
    </g>
    <g transform="matrix(1,0,0,1,494.637,-478.283)">
        <g transform="matrix(0.829772,0,0,0.834094,214.86,679.165)">
            <ellipse cx="160.52" cy="551.031" rx="101.631" ry="101.105" style="fill:none;stroke:white;stroke-width:5.01px;"/>
        </g>
        <path d="M263.724,1138.78L432.386,1138.78" style="fill:none;stroke:white;stroke-width:4.17px;"/>
        <path d="M348.055,1223.11L348.055,1054.45" style="fill:none;stroke:white;stroke-width:4.17px;"/>
    </g>
    <g>
        <g>
            <path d="M885.245,957.057C871.84,958.895 858.154,959.845 844.249,959.845C831.038,959.845 818.025,958.988 805.24,957.323L805.24,736.06C816.526,741.669 829.243,744.824 842.692,744.824C858.208,744.824 872.752,740.625 885.245,733.301L885.245,957.057ZM844.414,950.101L816.387,901.557L872.442,901.557L844.414,950.101ZM546.794,624.396L766.468,624.396C761.27,635.34 758.361,647.58 758.361,660.494C758.361,675.696 762.392,689.964 769.441,702.282L547.595,702.282C545.663,688.536 544.665,674.514 544.665,660.261C544.665,648.125 545.388,636.156 546.794,624.396ZM1141.8,625.177C1143.14,636.678 1143.83,648.389 1143.83,660.261C1143.83,674.415 1142.85,688.34 1140.94,701.995L916.106,701.995C923.053,689.743 927.022,675.578 927.022,660.494C927.022,647.887 924.25,635.922 919.282,625.177L1141.8,625.177ZM1136.48,660.494L1087.93,688.521L1087.93,632.466L1136.48,660.494ZM550.32,660.494L598.864,632.466L598.864,688.521L550.32,660.494ZM805.128,363.214C817.927,361.541 830.988,360.678 844.249,360.678C857.939,360.678 871.416,361.598 884.635,363.382L884.635,587.332C872.279,580.227 857.956,576.163 842.692,576.163C829.2,576.163 816.443,579.338 805.128,584.983L805.128,363.214ZM844.414,370.614L872.442,419.158L816.387,419.158L844.414,370.614Z" style="fill:rgb(255,207,97);"/>
        </g>
        <path d="M789.824,954.904C669.644,932.81 574.468,838.897 550.508,719.384L782.354,719.384C784.706,721.794 787.201,724.063 789.824,726.178L789.824,954.904ZM900.848,721.539C901.588,720.835 902.316,720.116 903.03,719.384L1137.99,719.384C1114.17,838.179 1020,931.679 900.848,954.496L900.848,721.539ZM789.824,365.618L789.824,594.809C785.186,598.547 780.951,602.768 777.195,607.393L549.325,607.393C571.19,484.888 667.576,388.088 789.824,365.618ZM900.848,366.027C1022.1,389.258 1117.46,485.649 1139.17,607.393L908.188,607.393C905.912,604.59 903.46,601.936 900.848,599.447L900.848,366.027Z" style="fill:rgb(158,159,208);"/>
        <path d="M655.938,1053.36L707.964,952.974C731.893,964.157 757.408,972.49 784.074,977.539L765.213,1088.41C726.552,1081.08 690.233,1070.19 655.938,1053.36ZM460.238,872.232L562.324,817.446C591.79,870.17 635.605,913.801 688.471,943.042L635.928,1043.52C563.053,1003.16 499.86,945.565 460.238,872.232ZM411.616,744.578L527.345,721.695C532.665,749.256 541.492,775.572 553.347,800.177L448.882,852.459C432.141,818.004 418.782,783.365 411.616,744.578Z" style="fill:rgb(158,159,208);"/>
        <path d="M906.1,1116.14L918.545,1192.19L772.621,1192.19L783.633,1116.14L906.1,1116.14ZM788.356,1089.68L802.867,980.524C816.464,982.275 830.335,983.178 844.414,983.178C857.567,983.178 870.537,982.39 883.256,980.861L900.331,1090.97C883.621,1092.93 866.602,1093.93 849.35,1093.93C828.643,1093.93 808.272,1092.48 788.356,1089.68ZM853.598,1050.35C853.598,1058.52 850.625,1062.61 844.678,1062.61L842.448,1062.61C836.502,1062.61 833.529,1058.52 833.529,1050.35L833.529,1014.67C833.529,1006.49 836.502,1002.4 842.448,1002.4L844.678,1002.4C850.625,1002.4 853.598,1006.49 853.598,1014.67L853.598,1050.35ZM843.608,1009.1C841.348,1009.1 840.219,1010.21 840.219,1012.44L840.219,1052.58C840.219,1054.81 841.348,1055.92 843.608,1055.92C845.808,1055.92 846.908,1054.81 846.908,1052.58L846.908,1012.44C846.908,1010.21 845.808,1009.1 843.608,1009.1ZM1280.49,602.985C1282.87,621.368 1284.1,640.135 1284.1,659.187C1284.1,680.806 1282.52,702.058 1279.46,722.852L1164.26,704.94C1166.28,690.352 1167.33,675.428 1167.33,660.261C1167.33,647.287 1166.56,634.49 1165.07,621.895L1280.49,602.985ZM407.836,605.951L523.641,622.895C522.225,635.158 521.498,647.625 521.498,660.261C521.498,674.394 522.408,688.316 524.171,701.964L408.861,720.22C406.053,700.265 404.602,679.894 404.602,659.187C404.602,641.167 405.701,623.402 407.836,605.951ZM1203.53,645.423C1203.53,637.247 1206.51,633.159 1212.45,633.159L1214.68,633.159C1220.63,633.159 1223.6,637.247 1223.6,645.423L1223.6,681.101C1223.6,689.278 1220.63,693.366 1214.68,693.366L1212.45,693.366C1206.51,693.366 1203.53,689.278 1203.53,681.101L1203.53,677.757L1210.22,677.757L1210.22,683.331C1210.22,685.561 1211.34,686.676 1213.57,686.676C1215.77,686.676 1216.88,685.561 1216.91,683.331L1216.91,669.952C1216.91,670.695 1215.43,671.067 1212.45,671.067C1206.51,671.067 1203.53,666.979 1203.53,658.803L1203.53,645.423ZM1248.13,681.101C1248.13,689.278 1245.16,693.366 1239.21,693.366L1236.98,693.366C1231.04,693.366 1228.06,689.278 1228.06,681.101L1228.06,645.423C1228.06,637.247 1231.04,633.159 1236.98,633.159L1239.21,633.159C1245.16,633.159 1248.13,637.247 1248.13,645.423L1248.13,681.101ZM430.238,678.333L430.238,683.907L443.618,683.907L443.618,690.597L423.549,690.597L423.549,677.218C423.549,672.758 425.779,668.112 430.238,663.281C434.698,658.45 436.928,653.804 436.928,649.344L436.928,640.425C436.928,638.195 435.828,637.08 433.628,637.08C431.368,637.08 430.238,638.195 430.238,640.425L430.238,645.999L423.549,645.999L423.549,642.655C423.549,634.478 426.522,630.39 432.468,630.39L434.698,630.39C440.644,630.39 443.618,634.478 443.618,642.655L443.618,648.229C443.618,654.919 441.388,660.679 436.928,665.511C432.468,670.342 430.238,674.616 430.238,678.333ZM495.351,678.333C495.351,686.509 492.378,690.597 486.431,690.597L484.201,690.597C478.255,690.597 475.282,686.509 475.282,678.333L475.282,642.655C475.282,634.478 478.255,630.39 484.201,630.39L486.431,630.39C492.378,630.39 495.351,634.478 495.351,642.655L495.351,678.333ZM464.133,637.035L448.077,637.08L448.077,630.39L470.822,630.39L470.822,639.711L458.781,690.597L452.091,690.597L464.133,637.035ZM1238.14,639.849C1235.88,639.849 1234.75,640.963 1234.75,643.193L1234.75,683.331C1234.75,685.561 1235.88,686.676 1238.14,686.676C1240.34,686.676 1241.44,685.561 1241.44,683.331L1241.44,643.193C1241.44,640.963 1240.34,639.849 1238.14,639.849ZM485.361,637.08C483.101,637.08 481.972,638.195 481.972,640.425L481.972,680.563C481.972,682.792 483.101,683.907 485.361,683.907C487.561,683.907 488.661,682.792 488.661,680.563L488.661,640.425C488.661,638.195 487.561,637.08 485.361,637.08ZM1213.57,664.377C1215.8,664.377 1216.91,663.262 1216.91,661.032L1216.91,643.193C1216.91,640.963 1215.78,639.849 1213.52,639.849C1211.32,639.849 1210.22,640.963 1210.22,643.193L1210.22,661.032C1210.22,663.262 1211.34,664.377 1213.57,664.377ZM446.425,474.9L550.766,525.832C539.777,549.772 531.631,575.284 526.762,601.931L411.245,582.873C417.816,544.723 430.59,508.976 446.425,474.9ZM525.124,361.497L607.138,441.32C588.899,461.072 573.092,483.106 560.202,506.935L459.465,451.901C477.296,418.013 499.342,389.373 525.124,361.497ZM787.47,228.818C807.706,225.93 828.355,224.439 849.35,224.439C868.594,224.439 887.547,225.692 906.103,228.117L887.506,340.2C873.417,338.317 859.029,337.345 844.414,337.345C830.887,337.345 817.553,338.178 804.463,339.797L787.47,228.818ZM820.886,311.043L820.886,262.878L816.872,262.878L816.872,256.188C819.548,256.188 820.886,254.404 820.886,250.836L827.576,250.836L827.576,311.043L820.886,311.043ZM847.644,279.825C850.618,280.568 852.104,283.541 852.104,288.744L852.104,298.779C852.104,306.955 849.131,311.043 843.185,311.043L840.955,311.043C835.008,311.043 832.035,306.955 832.035,298.779L832.035,288.744C832.035,283.541 833.522,280.568 836.495,279.825C833.522,279.081 832.035,276.108 832.035,270.905L832.035,263.101C832.035,254.924 835.008,250.836 840.955,250.836L843.185,250.836C849.131,250.836 852.104,254.924 852.104,263.101L852.104,270.905C852.104,276.108 850.618,279.081 847.644,279.825ZM876.633,298.779C876.633,306.955 873.66,311.043 867.713,311.043L865.484,311.043C859.537,311.043 856.564,306.955 856.564,298.779L856.564,263.101C856.564,254.924 859.537,250.836 865.484,250.836L867.713,250.836C873.66,250.836 876.633,254.924 876.633,263.101L876.633,298.779ZM842.07,283.17C839.84,283.17 838.725,284.285 838.725,286.514L838.725,301.009C838.725,303.239 839.84,304.353 842.07,304.353C844.3,304.353 845.415,303.239 845.415,301.009L845.415,286.514C845.415,284.285 844.3,283.17 842.07,283.17ZM866.643,257.526C864.383,257.526 863.254,258.641 863.254,260.871L863.254,301.009C863.254,303.239 864.383,304.353 866.643,304.353C868.843,304.353 869.943,303.239 869.943,301.009L869.943,260.871C869.943,258.641 868.843,257.526 866.643,257.526ZM842.07,276.48C844.3,276.331 845.415,275.216 845.415,273.135L845.415,260.871C845.415,258.641 844.315,257.526 842.114,257.526C839.855,257.526 838.725,258.641 838.725,260.871L838.725,273.135C838.725,275.216 839.84,276.331 842.07,276.48Z" style="fill:rgb(255,207,97);"/>
        <path d="M1276.39,741.013C1242.5,918.607 1100.46,1058.01 921.553,1087.95L902.895,977.886C1033.34,953.989 1136.51,851.578 1161.52,721.488L1276.39,741.013Z" style="fill:rgb(158,98,96);"/>
        <path d="M634.56,278.287L686.286,378.7C662.976,391.828 641.455,407.767 622.178,426.07L543.17,344.006C570.523,317.247 600.924,297.136 634.56,278.287ZM759.522,233.725L782.113,343.361C755.152,348.641 729.389,357.279 705.264,368.826L661.417,266.229C695.465,249.216 721.112,241.334 759.522,233.725ZM929.67,232.607C969.003,239.297 999.544,249.279 1034.53,265.797L982.848,368.484C958.469,356.887 932.413,348.255 905.144,343.057L929.67,232.607Z" style="fill:rgb(255,160,1);"/>
        <path d="M655.038,1070.27C687.376,1084.71 721.718,1095.57 757.546,1102.33L762.965,1104.03L749.016,1192.19L586.511,1192.19L648.376,1068.19L655.038,1070.27ZM444.499,880.288C487.233,955.008 551.07,1016.57 628.041,1057.14L629.334,1058.24L563.149,1191.91L394.956,1192.19L394.956,903.634L443.364,879.412L444.499,880.288ZM399.321,768.145C407.292,799.946 418.708,830.42 433.154,859.158L394.956,878.412L394.956,769.369L399.321,768.145Z" style="fill:rgb(158,159,208);"/>
        <path d="M1241.39,471.164C1258.08,505.874 1270.3,543.133 1277.29,582.184L1162.29,603.172C1157.31,575.321 1148.76,548.703 1137.13,523.818L1241.39,471.164ZM1161.55,356.759C1189.03,385.117 1210.6,413.209 1229.58,448.188L1127.66,505.169C1114.36,480.942 1098.04,458.602 1079.19,438.645L1161.55,356.759ZM1055.84,275.974C1090.45,294.358 1116.29,314.283 1144.58,340.968L1065.84,425.298C1046.07,406.658 1023.95,390.483 999.97,377.267L1055.84,275.974Z" style="fill:rgb(208,98,2);"/>
    </g>
    <g transform="matrix(0.980392,0,0,0.980392,195.953,583.845)">
        <g transform="matrix(0.829772,0,0,0.834094,214.86,679.165)">
            <ellipse cx="160.52" cy="551.031" rx="101.631" ry="101.105" style="fill:none;stroke:rgb(235,235,235);stroke-width:5.11px;"/>
        </g>
        <path d="M263.724,1138.78L432.386,1138.78" style="fill:none;stroke:rgb(235,235,235);stroke-width:4.25px;"/>
        <path d="M348.055,1223.11L348.055,1054.45" style="fill:none;stroke:rgb(235,235,235);stroke-width:4.25px;"/>
    </g>
</svg>
