<?xml version="1.0" encoding="UTF-8" standalone="no"?>
<!DOCTYPE svg PUBLIC "-//W3C//DTD SVG 1.1//EN" "http://www.w3.org/Graphics/SVG/1.1/DTD/svg11.dtd">
<svg width="100%" height="100%" viewBox="0 0 1323 2563" version="1.1" xmlns="http://www.w3.org/2000/svg" xmlns:xlink="http://www.w3.org/1999/xlink" xml:space="preserve" xmlns:serif="http://www.serif.com/" style="fill-rule:evenodd;clip-rule:evenodd;stroke-linecap:round;stroke-linejoin:round;stroke-miterlimit:1.5;">
    <g id="White">
        <g transform="matrix(1,0,0,1.07221,0,-177.458)">
            <path d="M35.433,2077.8L369.836,2077L369.836,2324.08C369.836,2354.76 396.5,2379.63 429.393,2379.63L590.551,2379.63L590.551,2500.8C590.551,2500.8 287.889,2500.43 129.531,2500.23C77.542,2500.16 35.433,2460.84 35.433,2412.35L35.433,2077.8Z" style="fill:rgb(150,146,146);"/>
        </g>
        <g transform="matrix(0.250978,0,0,1.01902,844.615,-47.6322)">
            <path d="M1811.3,2421.88C1811.3,2396.78 1728.7,2376.44 1626.81,2376.44L636.262,2376.44L636.262,2503.94L1626.81,2503.94C1728.7,2503.94 1811.3,2483.59 1811.3,2458.5C1811.3,2446.6 1811.3,2433.78 1811.3,2421.88Z" style="fill:rgb(150,146,146);"/>
        </g>
        <g transform="matrix(-1,0,0,1,1695.45,862.865)">
            <path d="M401.575,354.331L603.928,354.331C655.931,354.331 698.088,396.488 698.088,448.491L698.088,1015.09L591.789,1015.09L591.789,767.55C591.789,751.932 585.585,736.953 574.541,725.909C563.497,714.866 548.519,708.661 532.901,708.661C477.109,708.661 401.797,708.661 401.797,708.661L401.575,354.331Z" style="fill:rgb(150,146,146);"/>
        </g>
        <path d="M35.433,2027.72L35.433,177.328C35.433,145.996 47.882,115.948 70.04,93.797C92.199,71.646 122.25,59.207 153.582,59.217C316.583,59.27 590.551,59.36 590.551,59.36L590.685,188.976C590.685,188.976 542.055,188.914 490.727,188.849C425.508,188.765 372.565,241.559 372.466,306.778C371.845,712.953 369.836,2027.72 369.836,2027.72" style="fill:rgb(150,146,146);"/>
        <g transform="matrix(1,0,0,1,536.412,7.10543e-15)">
            <path d="M597.447,59.22L596.426,188.976L714.289,188.976C727.155,188.976 739.494,183.865 748.592,174.767C757.69,165.67 762.801,153.33 762.801,140.464L762.801,107.733C762.801,94.866 757.69,82.527 748.592,73.429C739.494,64.332 727.155,59.22 714.289,59.22L597.447,59.22Z" style="fill:rgb(150,146,146);"/>
        </g>
        <g transform="matrix(1,0,0,1,-86.1817,2336.76)">
            <path d="M702.648,152.757L702.648,53.88L715.832,53.88L731.945,121.995L731.945,53.88L742.931,53.88L742.931,152.757L729.748,152.757L713.635,89.036L713.635,152.757L702.648,152.757Z" style="fill:rgb(150,146,146);fill-rule:nonzero;"/>
            <path d="M775.89,127.122L786.877,127.122L786.877,132.615C786.877,146.043 781.994,152.757 772.228,152.757L764.904,152.757C755.138,152.757 750.256,146.043 750.256,132.615L750.256,74.022C750.256,60.594 755.138,53.88 764.904,53.88L772.228,53.88C781.994,53.88 786.877,60.594 786.877,74.022L786.877,79.515L775.89,79.515L775.89,70.36C775.89,66.697 774.059,64.866 770.397,64.866L766.735,64.866C763.073,64.866 761.242,66.697 761.242,70.36L761.242,136.278C761.242,139.94 763.073,141.771 766.735,141.771L770.397,141.771C774.059,141.771 775.89,139.94 775.89,136.278L775.89,127.122Z" style="fill:rgb(150,146,146);fill-rule:nonzero;"/>
            <path d="M819.836,127.122L830.822,127.122L830.822,132.615C830.822,146.043 825.939,152.757 816.174,152.757L808.849,152.757C799.084,152.757 794.201,146.043 794.201,132.615L794.201,74.022C794.201,60.594 799.084,53.88 808.849,53.88L816.174,53.88C825.939,53.88 830.822,60.594 830.822,74.022L830.822,79.515L819.836,79.515L819.836,70.36C819.836,66.697 818.005,64.866 814.343,64.866L810.68,64.866C807.018,64.866 805.187,66.697 805.187,70.36L805.187,136.278C805.187,139.94 807.018,141.771 810.68,141.771L814.343,141.771C818.005,141.771 819.836,139.94 819.836,136.278L819.836,127.122Z" style="fill:rgb(150,146,146);fill-rule:nonzero;"/>
            <rect x="838.146" y="97.825" width="32.959" height="10.986" style="fill:rgb(150,146,146);fill-rule:nonzero;"/>
            <path d="M889.416,132.615L889.416,141.771L911.388,141.771L911.388,152.757L878.429,152.757L878.429,130.784C878.429,123.46 882.092,115.831 889.416,107.896C896.74,99.962 900.402,92.332 900.402,85.008L900.402,70.36C900.402,66.697 898.596,64.866 894.982,64.866C891.271,64.866 889.416,66.697 889.416,70.36L889.416,79.515L878.429,79.515L878.429,74.022C878.429,60.594 883.312,53.88 893.078,53.88L896.74,53.88C906.506,53.88 911.388,60.594 911.388,74.022L911.388,83.177C911.388,94.163 907.726,103.624 900.402,111.558C893.078,119.493 889.416,126.512 889.416,132.615Z" style="fill:rgb(150,146,146);fill-rule:nonzero;"/>
            <path d="M935.265,64.866C931.554,64.866 929.699,66.697 929.699,70.36L929.699,136.278C929.699,139.94 931.554,141.771 935.265,141.771C938.879,141.771 940.685,139.94 940.685,136.278L940.685,70.36C940.685,66.697 938.879,64.866 935.265,64.866ZM951.672,132.615C951.672,146.043 946.789,152.757 937.023,152.757L933.361,152.757C923.596,152.757 918.713,146.043 918.713,132.615L918.713,74.022C918.713,60.594 923.596,53.88 933.361,53.88L937.023,53.88C946.789,53.88 951.672,60.594 951.672,74.022L951.672,132.615Z" style="fill:rgb(150,146,146);fill-rule:nonzero;"/>
            <path d="M965.588,152.757L965.588,73.655L958.996,73.655L958.996,62.669C963.39,62.669 965.588,59.739 965.588,53.88L976.574,53.88L976.574,152.757L965.588,152.757Z" style="fill:rgb(150,146,146);fill-rule:nonzero;"/>
            <path d="M1010.26,130.784L983.898,130.784L983.898,117.528L1010.26,53.88L1021.25,53.88L1021.25,119.725L1027.84,119.725L1027.84,130.784L1021.25,130.784L1021.25,152.757L1010.26,152.757L1010.26,130.784ZM1010.26,80.247L994.885,119.725L1010.26,119.725L1010.26,80.247Z" style="fill:rgb(150,146,146);fill-rule:nonzero;"/>
            <path d="M1035.17,106.981L1035.17,53.88L1068.13,53.88L1068.13,64.866L1046.15,64.866L1046.15,92.332C1046.15,91.112 1048.6,90.501 1053.48,90.501C1063.24,90.501 1068.13,97.215 1068.13,110.643L1068.13,132.615C1068.13,146.043 1063.24,152.757 1053.48,152.757L1049.82,152.757C1040.05,152.757 1035.17,146.043 1035.17,132.615L1035.17,127.122L1046.15,127.122L1046.15,136.278C1046.15,139.94 1048.01,141.771 1051.72,141.771C1055.33,141.771 1057.14,139.94 1057.14,136.278L1057.14,106.981C1057.14,103.319 1055.31,101.488 1051.65,101.488C1047.99,101.488 1046.15,103.319 1046.15,106.981L1035.17,106.981Z" style="fill:rgb(150,146,146);fill-rule:nonzero;"/>
        </g>
        <g transform="matrix(1.68067,0,0,1.68067,-49.5201,128.22)">
            <g transform="matrix(0.829772,0,0,0.834094,214.86,679.165)">
                <ellipse cx="160.52" cy="551.031" rx="101.631" ry="101.105" style="fill:none;stroke:rgb(150,146,146);stroke-width:2.98px;"/>
            </g>
            <path d="M263.724,1138.78L432.386,1138.78" style="fill:none;stroke:rgb(150,146,146);stroke-width:2.48px;"/>
            <path d="M348.055,1223.11L348.055,1054.45" style="fill:none;stroke:rgb(150,146,146);stroke-width:2.48px;"/>
        </g>
        <path d="M537.084,1900.41L1126.14,1900.41C1157.62,1900.41 1187.81,1912.91 1210.08,1935.18C1232.34,1957.44 1244.85,1987.63 1244.85,2019.12L1244.85,2065.16C1244.85,2096.65 1232.34,2126.84 1210.08,2149.1C1187.81,2171.37 1157.62,2183.87 1126.14,2183.87L536.183,2183.87L536.183,2183.86C614.064,2183.47 677.179,2120.11 677.179,2042.13C677.179,1964.45 614.557,1901.29 537.084,1900.41ZM957.042,2124.54L957.042,1959.74L975.353,1959.74L975.353,2124.54L957.042,2124.54ZM890.514,2124.54L890.514,1959.74L951.549,1959.74L951.549,1978.05L908.824,1978.05L908.824,2032.99L939.342,2032.99L939.342,2051.3L908.824,2051.3L908.824,2124.54L890.514,2124.54ZM1030.28,2048.24C1038.42,2052.31 1042.49,2060.45 1042.49,2072.66L1042.49,2112.33C1042.49,2118.43 1044.53,2122.5 1048.6,2124.54L1030.28,2124.54C1026.21,2122.5 1024.18,2118.43 1024.18,2112.33L1024.18,2066.55C1024.18,2060.45 1021.13,2057.4 1015.03,2057.4L1005.87,2057.4L1005.87,2124.54L987.56,2124.54L987.56,1959.74L1018.08,1959.74C1034.35,1959.74 1042.49,1970.93 1042.49,1993.31L1042.49,2023.83C1042.49,2038.07 1038.42,2046.21 1030.28,2048.24ZM1060.8,2124.54L1060.8,1959.74L1121.84,1959.74L1121.84,1978.18L1079.11,1978.18L1079.11,2032.99L1109.63,2032.99L1109.63,2051.3L1079.11,2051.3L1079.11,2106.23L1121.84,2106.23L1121.84,2124.54L1060.8,2124.54ZM1015.03,2039.09C1021.13,2039.09 1024.18,2036.04 1024.18,2029.93L1024.18,1987.21C1024.18,1981.11 1021.17,1978.05 1015.15,1978.05L1005.87,1978.05L1005.87,2039.09L1015.03,2039.09Z" style="fill:rgb(150,146,146);"/>
        <path d="M394.909,1217.19L879.936,1217.19C904.849,1217.19 928.742,1227.09 946.358,1244.71C963.975,1262.33 973.871,1286.22 973.871,1311.13L973.871,1877.95L875.734,1877.95L875.734,1629.99C875.734,1614.48 869.575,1599.61 858.611,1588.65C847.647,1577.69 832.777,1571.53 817.271,1571.53C689.183,1571.53 395.131,1571.53 395.131,1571.53L394.909,1217.19ZM715.938,1341.13L715.938,1242.25L726.924,1242.25L726.924,1341.13L715.938,1341.13ZM447.139,1289.86C452.022,1291.08 454.463,1295.96 454.463,1304.51L454.463,1320.99C454.463,1334.42 449.581,1341.13 439.815,1341.13L417.842,1341.13L417.842,1242.25L439.815,1242.25C449.581,1242.25 454.463,1248.97 454.463,1262.4L454.463,1275.21C454.463,1283.76 452.022,1288.64 447.139,1289.86ZM461.788,1341.13L461.788,1242.25L498.409,1242.25L498.409,1253.31L472.774,1253.31L472.774,1286.2L491.084,1286.2L491.084,1297.19L472.774,1297.19L472.774,1330.14L498.409,1330.14L498.409,1341.13L461.788,1341.13ZM770.87,1320.99C770.87,1334.42 765.987,1341.13 756.221,1341.13L734.249,1341.13L734.249,1242.25L756.221,1242.25C765.987,1242.25 770.87,1248.97 770.87,1262.4L770.87,1320.99ZM814.815,1341.13L814.815,1242.25L825.801,1242.25L825.801,1282.54L840.45,1282.54L840.45,1242.25L851.436,1242.25L851.436,1341.13L840.45,1341.13L840.45,1293.52L825.801,1293.52L825.801,1341.13L814.815,1341.13ZM774.166,1253.24L774.166,1242.25L811.519,1242.33L811.519,1253.24L798.335,1253.24L798.335,1341.13L787.349,1341.13L787.349,1253.24L774.166,1253.24ZM517.378,1319.16L514.522,1341.13L501.705,1341.13L514.522,1242.25L529.17,1242.25L541.988,1341.13L529.17,1341.13L526.314,1319.16L517.378,1319.16ZM549.312,1341.13L549.312,1242.25L562.496,1242.25L577.217,1305.9L591.06,1242.25L604.244,1242.25L604.244,1341.13L593.257,1341.13L593.257,1277.41L582.271,1341.13L571.285,1341.13L560.298,1277.41L560.298,1341.13L549.312,1341.13ZM674.776,1291.69L668.331,1341.13L653.682,1341.13L640.865,1242.25L653.682,1242.25L661.006,1298.72L668.331,1242.25L681.148,1242.25L688.472,1298.72L695.796,1242.25L708.614,1242.25L695.796,1341.13L681.148,1341.13L674.776,1291.69ZM437.984,1295.36L428.829,1295.36L428.829,1330.14L437.984,1330.14C441.646,1330.14 443.477,1328.31 443.477,1324.65L443.477,1300.85C443.477,1297.19 441.646,1295.36 437.984,1295.36ZM754.39,1330.14C758.052,1330.14 759.883,1328.31 759.883,1324.65L759.883,1258.73C759.883,1255.07 758.077,1253.24 754.463,1253.24L745.235,1253.24L745.235,1330.14L754.39,1330.14ZM524.922,1308.17L521.846,1284.66L518.77,1308.17L524.922,1308.17ZM437.984,1284.37C441.646,1284.12 443.477,1282.29 443.477,1278.88L443.477,1258.73C443.477,1255.07 441.646,1253.24 437.984,1253.24L428.829,1253.24L428.829,1284.37L437.984,1284.37Z" style="fill:rgb(150,146,146);"/>
        <g transform="matrix(1,0,0,1,494.637,-478.283)">
            <g transform="matrix(0.829772,0,0,0.834094,214.86,679.165)">
                <ellipse cx="160.52" cy="551.031" rx="101.631" ry="101.105" style="fill:none;stroke:rgb(150,146,146);stroke-width:5.01px;"/>
            </g>
            <path d="M263.724,1138.78L432.386,1138.78" style="fill:none;stroke:rgb(150,146,146);stroke-width:4.17px;"/>
            <path d="M348.055,1223.11L348.055,1054.45" style="fill:none;stroke:rgb(150,146,146);stroke-width:4.17px;"/>
        </g>
        <g transform="matrix(0.980392,0,0,0.980392,194.953,583.845)">
            <g transform="matrix(0.829772,0,0,0.834094,214.86,679.165)">
                <ellipse cx="160.52" cy="551.031" rx="101.631" ry="101.105" style="fill:none;stroke:rgb(150,146,146);stroke-width:5.11px;"/>
            </g>
            <path d="M263.724,1138.78L432.386,1138.78" style="fill:none;stroke:rgb(150,146,146);stroke-width:4.25px;"/>
            <path d="M348.055,1223.11L348.055,1054.45" style="fill:none;stroke:rgb(150,146,146);stroke-width:4.25px;"/>
        </g>
        <g transform="matrix(1,0,0,1,-86.1817,20.7798)">
            <g transform="matrix(150,0,0,150,702.648,152.757)">
                <path d="M0.134,-0.342C0.159,-0.343 0.171,-0.356 0.171,-0.378L0.171,-0.549C0.171,-0.574 0.159,-0.586 0.134,-0.586L0.073,-0.586L0.073,-0.342L0.134,-0.342ZM0.146,-0.269L0.073,-0.269L0.073,-0L0,-0L0,-0.659L0.146,-0.659C0.212,-0.659 0.244,-0.614 0.244,-0.525L0.244,-0.403C0.244,-0.313 0.212,-0.269 0.146,-0.269Z" style="fill:rgb(150,146,146);fill-rule:nonzero;"/>
            </g>
            <g transform="matrix(150,0,0,150,746.594,152.757)">
                <path d="M0,-0L0,-0.659L0.073,-0.659L0.073,-0.391L0.171,-0.391L0.171,-0.659L0.244,-0.659L0.244,-0L0.171,-0L0.171,-0.317L0.073,-0.317L0.073,-0L0,-0Z" style="fill:rgb(150,146,146);fill-rule:nonzero;"/>
            </g>
            <g transform="matrix(150,0,0,150,790.539,152.757)">
                <path d="M0.104,-0.146L0.085,-0L0,-0L0.085,-0.659L0.183,-0.659L0.269,-0L0.183,-0L0.164,-0.146L0.104,-0.146ZM0.155,-0.22L0.134,-0.376L0.114,-0.22L0.155,-0.22Z" style="fill:rgb(150,146,146);fill-rule:nonzero;"/>
            </g>
            <g transform="matrix(150,0,0,150,838.146,152.757)">
                <path d="M0.073,-0.464C0.073,-0.431 0.102,-0.393 0.159,-0.348C0.216,-0.303 0.244,-0.26 0.244,-0.22L0.244,-0.134C0.244,-0.045 0.212,-0 0.146,-0L0.098,-0C0.033,-0 0,-0.045 0,-0.134L0,-0.171L0.073,-0.171L0.073,-0.11C0.073,-0.085 0.085,-0.073 0.11,-0.073L0.134,-0.073C0.159,-0.073 0.171,-0.085 0.171,-0.11L0.171,-0.208C0.171,-0.24 0.142,-0.279 0.085,-0.323C0.028,-0.368 0,-0.412 0,-0.454L0,-0.525C0,-0.614 0.033,-0.659 0.098,-0.659L0.146,-0.659C0.212,-0.659 0.244,-0.614 0.244,-0.525L0.244,-0.488L0.171,-0.488L0.171,-0.549C0.171,-0.574 0.159,-0.586 0.134,-0.586L0.11,-0.586C0.085,-0.586 0.073,-0.574 0.073,-0.549L0.073,-0.464Z" style="fill:rgb(150,146,146);fill-rule:nonzero;"/>
            </g>
            <g transform="matrix(150,0,0,150,882.092,152.757)">
                <path d="M0,-0L0,-0.659L0.244,-0.659L0.244,-0.585L0.073,-0.585L0.073,-0.366L0.195,-0.366L0.195,-0.293L0.073,-0.293L0.073,-0.073L0.244,-0.073L0.244,-0L0,-0Z" style="fill:rgb(150,146,146);fill-rule:nonzero;"/>
            </g>
            <g transform="matrix(150,0,0,150,922.009,152.757)">
                <path d="M0.11,-0.342C0.134,-0.342 0.146,-0.354 0.146,-0.378L0.146,-0.549C0.146,-0.574 0.134,-0.586 0.11,-0.586L0.073,-0.586L0.073,-0.342L0.11,-0.342ZM0.171,-0.305C0.203,-0.289 0.22,-0.256 0.22,-0.208L0.22,-0.049C0.22,-0.024 0.228,-0.008 0.244,-0L0.171,-0C0.155,-0.008 0.146,-0.024 0.146,-0.049L0.146,-0.232C0.146,-0.256 0.134,-0.269 0.11,-0.269L0.073,-0.269L0.073,-0L0,-0L0,-0.659L0.122,-0.659C0.187,-0.659 0.22,-0.614 0.22,-0.525L0.22,-0.403C0.22,-0.346 0.203,-0.313 0.171,-0.305Z" style="fill:rgb(150,146,146);fill-rule:nonzero;"/>
            </g>
            <g transform="matrix(150,0,0,150,995.251,152.757)">
                <path d="M0.104,-0.146L0.085,-0L0,-0L0.085,-0.659L0.183,-0.659L0.269,-0L0.183,-0L0.164,-0.146L0.104,-0.146ZM0.155,-0.22L0.134,-0.376L0.114,-0.22L0.155,-0.22Z" style="fill:rgb(150,146,146);fill-rule:nonzero;"/>
            </g>
            <g transform="matrix(150,0,0,150,1042.86,152.757)">
                <path d="M0.11,-0.342C0.134,-0.342 0.146,-0.354 0.146,-0.378L0.146,-0.549C0.146,-0.574 0.134,-0.586 0.11,-0.586L0.073,-0.586L0.073,-0.342L0.11,-0.342ZM0.171,-0.305C0.203,-0.289 0.22,-0.256 0.22,-0.208L0.22,-0.049C0.22,-0.024 0.228,-0.008 0.244,-0L0.171,-0C0.155,-0.008 0.146,-0.024 0.146,-0.049L0.146,-0.232C0.146,-0.256 0.134,-0.269 0.11,-0.269L0.073,-0.269L0.073,-0L0,-0L0,-0.659L0.122,-0.659C0.187,-0.659 0.22,-0.614 0.22,-0.525L0.22,-0.403C0.22,-0.346 0.203,-0.313 0.171,-0.305Z" style="fill:rgb(150,146,146);fill-rule:nonzero;"/>
            </g>
            <g transform="matrix(150,0,0,150,1086.8,152.757)">
                <path d="M0.11,-0.342C0.134,-0.342 0.146,-0.354 0.146,-0.378L0.146,-0.549C0.146,-0.574 0.134,-0.586 0.11,-0.586L0.073,-0.586L0.073,-0.342L0.11,-0.342ZM0.171,-0.305C0.203,-0.289 0.22,-0.256 0.22,-0.208L0.22,-0.049C0.22,-0.024 0.228,-0.008 0.244,-0L0.171,-0C0.155,-0.008 0.146,-0.024 0.146,-0.049L0.146,-0.232C0.146,-0.256 0.134,-0.269 0.11,-0.269L0.073,-0.269L0.073,-0L0,-0L0,-0.659L0.122,-0.659C0.187,-0.659 0.22,-0.614 0.22,-0.525L0.22,-0.403C0.22,-0.346 0.203,-0.313 0.171,-0.305Z" style="fill:rgb(150,146,146);fill-rule:nonzero;"/>
            </g>
            <g transform="matrix(150,0,0,150,1130.75,152.757)">
                <path d="M0.104,-0.146L0.085,-0L0,-0L0.085,-0.659L0.183,-0.659L0.269,-0L0.183,-0L0.164,-0.146L0.104,-0.146ZM0.155,-0.22L0.134,-0.376L0.114,-0.22L0.155,-0.22Z" style="fill:rgb(150,146,146);fill-rule:nonzero;"/>
            </g>
            <g transform="matrix(150,0,0,150,1165.83,152.757)">
                <path d="M0.098,-0.308L0,-0.659L0.085,-0.659L0.134,-0.483L0.183,-0.659L0.269,-0.659L0.171,-0.308L0.171,-0L0.098,-0L0.098,-0.308Z" style="fill:rgb(150,146,146);fill-rule:nonzero;"/>
            </g>
        </g>
    </g>
    <g id="Color">
        <g transform="matrix(1,0,0,1.07221,0,-177.458)">
            <path d="M35.433,2077.8L369.836,2077L369.836,2324.08C369.836,2354.76 396.5,2379.63 429.393,2379.63L590.551,2379.63L590.551,2500.8C590.551,2500.8 287.889,2500.43 129.531,2500.23C77.542,2500.16 35.433,2460.84 35.433,2412.35L35.433,2077.8Z" style="fill:rgb(204,154,204);"/>
        </g>
        <g transform="matrix(0.250978,0,0,1.01902,844.615,-47.6322)">
            <path d="M1811.3,2421.88C1811.3,2396.78 1728.7,2376.44 1626.81,2376.44L636.262,2376.44L636.262,2503.94L1626.81,2503.94C1728.7,2503.94 1811.3,2483.59 1811.3,2458.5C1811.3,2446.6 1811.3,2433.78 1811.3,2421.88Z" style="fill:rgb(204,154,204);"/>
        </g>
        <g transform="matrix(-1,0,0,1,1695.45,862.865)">
            <path d="M401.575,354.331L603.928,354.331C655.931,354.331 698.088,396.488 698.088,448.491L698.088,1015.09L591.789,1015.09L591.789,767.55C591.789,751.932 585.585,736.953 574.541,725.909C563.497,714.866 548.519,708.661 532.901,708.661C477.109,708.661 401.797,708.661 401.797,708.661L401.575,354.331Z" style="fill:rgb(204,102,153);"/>
        </g>
        <path d="M35.433,2027.72L35.433,177.328C35.433,145.996 47.882,115.948 70.04,93.797C92.199,71.646 122.25,59.207 153.582,59.217C316.583,59.27 590.551,59.36 590.551,59.36L590.685,188.976C590.685,188.976 542.055,188.914 490.727,188.849C425.508,188.765 372.565,241.559 372.466,306.778C371.845,712.953 369.836,2027.72 369.836,2027.72" style="fill:rgb(253,157,3);"/>
        <g transform="matrix(1,0,0,1,536.412,7.10543e-15)">
            <path d="M597.447,59.22L596.426,188.976L714.289,188.976C727.155,188.976 739.494,183.865 748.592,174.767C757.69,165.67 762.801,153.33 762.801,140.464L762.801,107.733C762.801,94.866 757.69,82.527 748.592,73.429C739.494,64.332 727.155,59.22 714.289,59.22L597.447,59.22Z" style="fill:rgb(253,157,3);"/>
        </g>
        <g transform="matrix(1,0,0,1,-86.1817,20.7798)">
            <g transform="matrix(150,0,0,150,702.648,152.757)">
                <path d="M0.134,-0.342C0.159,-0.343 0.171,-0.356 0.171,-0.378L0.171,-0.549C0.171,-0.574 0.159,-0.586 0.134,-0.586L0.073,-0.586L0.073,-0.342L0.134,-0.342ZM0.146,-0.269L0.073,-0.269L0.073,-0L0,-0L0,-0.659L0.146,-0.659C0.212,-0.659 0.244,-0.614 0.244,-0.525L0.244,-0.403C0.244,-0.313 0.212,-0.269 0.146,-0.269Z" style="fill:rgb(253,157,3);fill-rule:nonzero;"/>
            </g>
            <g transform="matrix(150,0,0,150,746.594,152.757)">
                <path d="M0,-0L0,-0.659L0.073,-0.659L0.073,-0.391L0.171,-0.391L0.171,-0.659L0.244,-0.659L0.244,-0L0.171,-0L0.171,-0.317L0.073,-0.317L0.073,-0L0,-0Z" style="fill:rgb(253,157,3);fill-rule:nonzero;"/>
            </g>
            <g transform="matrix(150,0,0,150,790.539,152.757)">
                <path d="M0.104,-0.146L0.085,-0L0,-0L0.085,-0.659L0.183,-0.659L0.269,-0L0.183,-0L0.164,-0.146L0.104,-0.146ZM0.155,-0.22L0.134,-0.376L0.114,-0.22L0.155,-0.22Z" style="fill:rgb(253,157,3);fill-rule:nonzero;"/>
            </g>
            <g transform="matrix(150,0,0,150,838.146,152.757)">
                <path d="M0.073,-0.464C0.073,-0.431 0.102,-0.393 0.159,-0.348C0.216,-0.303 0.244,-0.26 0.244,-0.22L0.244,-0.134C0.244,-0.045 0.212,-0 0.146,-0L0.098,-0C0.033,-0 0,-0.045 0,-0.134L0,-0.171L0.073,-0.171L0.073,-0.11C0.073,-0.085 0.085,-0.073 0.11,-0.073L0.134,-0.073C0.159,-0.073 0.171,-0.085 0.171,-0.11L0.171,-0.208C0.171,-0.24 0.142,-0.279 0.085,-0.323C0.028,-0.368 0,-0.412 0,-0.454L0,-0.525C0,-0.614 0.033,-0.659 0.098,-0.659L0.146,-0.659C0.212,-0.659 0.244,-0.614 0.244,-0.525L0.244,-0.488L0.171,-0.488L0.171,-0.549C0.171,-0.574 0.159,-0.586 0.134,-0.586L0.11,-0.586C0.085,-0.586 0.073,-0.574 0.073,-0.549L0.073,-0.464Z" style="fill:rgb(253,157,3);fill-rule:nonzero;"/>
            </g>
            <g transform="matrix(150,0,0,150,882.092,152.757)">
                <path d="M0,-0L0,-0.659L0.244,-0.659L0.244,-0.585L0.073,-0.585L0.073,-0.366L0.195,-0.366L0.195,-0.293L0.073,-0.293L0.073,-0.073L0.244,-0.073L0.244,-0L0,-0Z" style="fill:rgb(253,157,3);fill-rule:nonzero;"/>
            </g>
            <g transform="matrix(150,0,0,150,922.009,152.757)">
                <path d="M0.11,-0.342C0.134,-0.342 0.146,-0.354 0.146,-0.378L0.146,-0.549C0.146,-0.574 0.134,-0.586 0.11,-0.586L0.073,-0.586L0.073,-0.342L0.11,-0.342ZM0.171,-0.305C0.203,-0.289 0.22,-0.256 0.22,-0.208L0.22,-0.049C0.22,-0.024 0.228,-0.008 0.244,-0L0.171,-0C0.155,-0.008 0.146,-0.024 0.146,-0.049L0.146,-0.232C0.146,-0.256 0.134,-0.269 0.11,-0.269L0.073,-0.269L0.073,-0L0,-0L0,-0.659L0.122,-0.659C0.187,-0.659 0.22,-0.614 0.22,-0.525L0.22,-0.403C0.22,-0.346 0.203,-0.313 0.171,-0.305Z" style="fill:rgb(253,157,3);fill-rule:nonzero;"/>
            </g>
            <g transform="matrix(150,0,0,150,995.251,152.757)">
                <path d="M0.104,-0.146L0.085,-0L0,-0L0.085,-0.659L0.183,-0.659L0.269,-0L0.183,-0L0.164,-0.146L0.104,-0.146ZM0.155,-0.22L0.134,-0.376L0.114,-0.22L0.155,-0.22Z" style="fill:rgb(253,157,3);fill-rule:nonzero;"/>
            </g>
            <g transform="matrix(150,0,0,150,1042.86,152.757)">
                <path d="M0.11,-0.342C0.134,-0.342 0.146,-0.354 0.146,-0.378L0.146,-0.549C0.146,-0.574 0.134,-0.586 0.11,-0.586L0.073,-0.586L0.073,-0.342L0.11,-0.342ZM0.171,-0.305C0.203,-0.289 0.22,-0.256 0.22,-0.208L0.22,-0.049C0.22,-0.024 0.228,-0.008 0.244,-0L0.171,-0C0.155,-0.008 0.146,-0.024 0.146,-0.049L0.146,-0.232C0.146,-0.256 0.134,-0.269 0.11,-0.269L0.073,-0.269L0.073,-0L0,-0L0,-0.659L0.122,-0.659C0.187,-0.659 0.22,-0.614 0.22,-0.525L0.22,-0.403C0.22,-0.346 0.203,-0.313 0.171,-0.305Z" style="fill:rgb(253,157,3);fill-rule:nonzero;"/>
            </g>
            <g transform="matrix(150,0,0,150,1086.8,152.757)">
                <path d="M0.11,-0.342C0.134,-0.342 0.146,-0.354 0.146,-0.378L0.146,-0.549C0.146,-0.574 0.134,-0.586 0.11,-0.586L0.073,-0.586L0.073,-0.342L0.11,-0.342ZM0.171,-0.305C0.203,-0.289 0.22,-0.256 0.22,-0.208L0.22,-0.049C0.22,-0.024 0.228,-0.008 0.244,-0L0.171,-0C0.155,-0.008 0.146,-0.024 0.146,-0.049L0.146,-0.232C0.146,-0.256 0.134,-0.269 0.11,-0.269L0.073,-0.269L0.073,-0L0,-0L0,-0.659L0.122,-0.659C0.187,-0.659 0.22,-0.614 0.22,-0.525L0.22,-0.403C0.22,-0.346 0.203,-0.313 0.171,-0.305Z" style="fill:rgb(253,157,3);fill-rule:nonzero;"/>
            </g>
            <g transform="matrix(150,0,0,150,1130.75,152.757)">
                <path d="M0.104,-0.146L0.085,-0L0,-0L0.085,-0.659L0.183,-0.659L0.269,-0L0.183,-0L0.164,-0.146L0.104,-0.146ZM0.155,-0.22L0.134,-0.376L0.114,-0.22L0.155,-0.22Z" style="fill:rgb(253,157,3);fill-rule:nonzero;"/>
            </g>
            <g transform="matrix(150,0,0,150,1165.83,152.757)">
                <path d="M0.098,-0.308L0,-0.659L0.085,-0.659L0.134,-0.483L0.183,-0.659L0.269,-0.659L0.171,-0.308L0.171,-0L0.098,-0L0.098,-0.308Z" style="fill:rgb(253,157,3);fill-rule:nonzero;"/>
            </g>
        </g>
        <g transform="matrix(1,0,0,1,-86.1817,2336.76)">
            <path d="M702.648,152.757L702.648,53.88L715.832,53.88L731.945,121.995L731.945,53.88L742.931,53.88L742.931,152.757L729.748,152.757L713.635,89.036L713.635,152.757L702.648,152.757Z" style="fill:rgb(204,154,204);fill-rule:nonzero;"/>
            <path d="M775.89,127.122L786.877,127.122L786.877,132.615C786.877,146.043 781.994,152.757 772.228,152.757L764.904,152.757C755.138,152.757 750.256,146.043 750.256,132.615L750.256,74.022C750.256,60.594 755.138,53.88 764.904,53.88L772.228,53.88C781.994,53.88 786.877,60.594 786.877,74.022L786.877,79.515L775.89,79.515L775.89,70.36C775.89,66.697 774.059,64.866 770.397,64.866L766.735,64.866C763.073,64.866 761.242,66.697 761.242,70.36L761.242,136.278C761.242,139.94 763.073,141.771 766.735,141.771L770.397,141.771C774.059,141.771 775.89,139.94 775.89,136.278L775.89,127.122Z" style="fill:rgb(204,154,204);fill-rule:nonzero;"/>
            <path d="M819.836,127.122L830.822,127.122L830.822,132.615C830.822,146.043 825.939,152.757 816.174,152.757L808.849,152.757C799.084,152.757 794.201,146.043 794.201,132.615L794.201,74.022C794.201,60.594 799.084,53.88 808.849,53.88L816.174,53.88C825.939,53.88 830.822,60.594 830.822,74.022L830.822,79.515L819.836,79.515L819.836,70.36C819.836,66.697 818.005,64.866 814.343,64.866L810.68,64.866C807.018,64.866 805.187,66.697 805.187,70.36L805.187,136.278C805.187,139.94 807.018,141.771 810.68,141.771L814.343,141.771C818.005,141.771 819.836,139.94 819.836,136.278L819.836,127.122Z" style="fill:rgb(204,154,204);fill-rule:nonzero;"/>
            <rect x="838.146" y="97.825" width="32.959" height="10.986" style="fill:rgb(204,154,204);fill-rule:nonzero;"/>
            <path d="M889.416,132.615L889.416,141.771L911.388,141.771L911.388,152.757L878.429,152.757L878.429,130.784C878.429,123.46 882.092,115.831 889.416,107.896C896.74,99.962 900.402,92.332 900.402,85.008L900.402,70.36C900.402,66.697 898.596,64.866 894.982,64.866C891.271,64.866 889.416,66.697 889.416,70.36L889.416,79.515L878.429,79.515L878.429,74.022C878.429,60.594 883.312,53.88 893.078,53.88L896.74,53.88C906.506,53.88 911.388,60.594 911.388,74.022L911.388,83.177C911.388,94.163 907.726,103.624 900.402,111.558C893.078,119.493 889.416,126.512 889.416,132.615Z" style="fill:rgb(204,154,204);fill-rule:nonzero;"/>
            <path d="M935.265,64.866C931.554,64.866 929.699,66.697 929.699,70.36L929.699,136.278C929.699,139.94 931.554,141.771 935.265,141.771C938.879,141.771 940.685,139.94 940.685,136.278L940.685,70.36C940.685,66.697 938.879,64.866 935.265,64.866ZM951.672,132.615C951.672,146.043 946.789,152.757 937.023,152.757L933.361,152.757C923.596,152.757 918.713,146.043 918.713,132.615L918.713,74.022C918.713,60.594 923.596,53.88 933.361,53.88L937.023,53.88C946.789,53.88 951.672,60.594 951.672,74.022L951.672,132.615Z" style="fill:rgb(204,154,204);fill-rule:nonzero;"/>
            <path d="M965.588,152.757L965.588,73.655L958.996,73.655L958.996,62.669C963.39,62.669 965.588,59.739 965.588,53.88L976.574,53.88L976.574,152.757L965.588,152.757Z" style="fill:rgb(204,154,204);fill-rule:nonzero;"/>
            <path d="M1010.26,130.784L983.898,130.784L983.898,117.528L1010.26,53.88L1021.25,53.88L1021.25,119.725L1027.84,119.725L1027.84,130.784L1021.25,130.784L1021.25,152.757L1010.26,152.757L1010.26,130.784ZM1010.26,80.247L994.885,119.725L1010.26,119.725L1010.26,80.247Z" style="fill:rgb(204,154,204);fill-rule:nonzero;"/>
            <path d="M1035.17,106.981L1035.17,53.88L1068.13,53.88L1068.13,64.866L1046.15,64.866L1046.15,92.332C1046.15,91.112 1048.6,90.501 1053.48,90.501C1063.24,90.501 1068.13,97.215 1068.13,110.643L1068.13,132.615C1068.13,146.043 1063.24,152.757 1053.48,152.757L1049.82,152.757C1040.05,152.757 1035.17,146.043 1035.17,132.615L1035.17,127.122L1046.15,127.122L1046.15,136.278C1046.15,139.94 1048.01,141.771 1051.72,141.771C1055.33,141.771 1057.14,139.94 1057.14,136.278L1057.14,106.981C1057.14,103.319 1055.31,101.488 1051.65,101.488C1047.99,101.488 1046.15,103.319 1046.15,106.981L1035.17,106.981Z" style="fill:rgb(204,154,204);fill-rule:nonzero;"/>
        </g>
        <path d="M537.084,1900.41L1126.14,1900.41C1157.62,1900.41 1187.81,1912.91 1210.08,1935.18C1232.34,1957.44 1244.85,1987.63 1244.85,2019.12L1244.85,2065.16C1244.85,2096.65 1232.34,2126.84 1210.08,2149.1C1187.81,2171.37 1157.62,2183.87 1126.14,2183.87L536.183,2183.87L536.183,2183.86C614.064,2183.47 677.179,2120.11 677.179,2042.13C677.179,1964.45 614.557,1901.29 537.084,1900.41ZM957.042,2124.54L957.042,1959.74L975.353,1959.74L975.353,2124.54L957.042,2124.54ZM890.514,2124.54L890.514,1959.74L951.549,1959.74L951.549,1978.05L908.824,1978.05L908.824,2032.99L939.342,2032.99L939.342,2051.3L908.824,2051.3L908.824,2124.54L890.514,2124.54ZM1030.28,2048.24C1038.42,2052.31 1042.49,2060.45 1042.49,2072.66L1042.49,2112.33C1042.49,2118.43 1044.53,2122.5 1048.6,2124.54L1030.28,2124.54C1026.21,2122.5 1024.18,2118.43 1024.18,2112.33L1024.18,2066.55C1024.18,2060.45 1021.13,2057.4 1015.03,2057.4L1005.87,2057.4L1005.87,2124.54L987.56,2124.54L987.56,1959.74L1018.08,1959.74C1034.35,1959.74 1042.49,1970.93 1042.49,1993.31L1042.49,2023.83C1042.49,2038.07 1038.42,2046.21 1030.28,2048.24ZM1060.8,2124.54L1060.8,1959.74L1121.84,1959.74L1121.84,1978.18L1079.11,1978.18L1079.11,2032.99L1109.63,2032.99L1109.63,2051.3L1079.11,2051.3L1079.11,2106.23L1121.84,2106.23L1121.84,2124.54L1060.8,2124.54ZM1015.03,2039.09C1021.13,2039.09 1024.18,2036.04 1024.18,2029.93L1024.18,1987.21C1024.18,1981.11 1021.17,1978.05 1015.15,1978.05L1005.87,1978.05L1005.87,2039.09L1015.03,2039.09Z" style="fill:rgb(204,102,153);"/>
        <path d="M394.909,1217.19L879.936,1217.19C904.849,1217.19 928.742,1227.09 946.358,1244.71C963.975,1262.33 973.871,1286.22 973.871,1311.13L973.871,1877.95L875.734,1877.95L875.734,1629.99C875.734,1614.48 869.575,1599.61 858.611,1588.65C847.647,1577.69 832.777,1571.53 817.271,1571.53C689.183,1571.53 395.131,1571.53 395.131,1571.53L394.909,1217.19ZM715.938,1341.13L715.938,1242.25L726.924,1242.25L726.924,1341.13L715.938,1341.13ZM447.139,1289.86C452.022,1291.08 454.463,1295.96 454.463,1304.51L454.463,1320.99C454.463,1334.42 449.581,1341.13 439.815,1341.13L417.842,1341.13L417.842,1242.25L439.815,1242.25C449.581,1242.25 454.463,1248.97 454.463,1262.4L454.463,1275.21C454.463,1283.76 452.022,1288.64 447.139,1289.86ZM461.788,1341.13L461.788,1242.25L498.409,1242.25L498.409,1253.31L472.774,1253.31L472.774,1286.2L491.084,1286.2L491.084,1297.19L472.774,1297.19L472.774,1330.14L498.409,1330.14L498.409,1341.13L461.788,1341.13ZM770.87,1320.99C770.87,1334.42 765.987,1341.13 756.221,1341.13L734.249,1341.13L734.249,1242.25L756.221,1242.25C765.987,1242.25 770.87,1248.97 770.87,1262.4L770.87,1320.99ZM814.815,1341.13L814.815,1242.25L825.801,1242.25L825.801,1282.54L840.45,1282.54L840.45,1242.25L851.436,1242.25L851.436,1341.13L840.45,1341.13L840.45,1293.52L825.801,1293.52L825.801,1341.13L814.815,1341.13ZM774.166,1253.24L774.166,1242.25L811.519,1242.33L811.519,1253.24L798.335,1253.24L798.335,1341.13L787.349,1341.13L787.349,1253.24L774.166,1253.24ZM517.378,1319.16L514.522,1341.13L501.705,1341.13L514.522,1242.25L529.17,1242.25L541.988,1341.13L529.17,1341.13L526.314,1319.16L517.378,1319.16ZM549.312,1341.13L549.312,1242.25L562.496,1242.25L577.217,1305.9L591.06,1242.25L604.244,1242.25L604.244,1341.13L593.257,1341.13L593.257,1277.41L582.271,1341.13L571.285,1341.13L560.298,1277.41L560.298,1341.13L549.312,1341.13ZM674.776,1291.69L668.331,1341.13L653.682,1341.13L640.865,1242.25L653.682,1242.25L661.006,1298.72L668.331,1242.25L681.148,1242.25L688.472,1298.72L695.796,1242.25L708.614,1242.25L695.796,1341.13L681.148,1341.13L674.776,1291.69ZM437.984,1295.36L428.829,1295.36L428.829,1330.14L437.984,1330.14C441.646,1330.14 443.477,1328.31 443.477,1324.65L443.477,1300.85C443.477,1297.19 441.646,1295.36 437.984,1295.36ZM754.39,1330.14C758.052,1330.14 759.883,1328.31 759.883,1324.65L759.883,1258.73C759.883,1255.07 758.077,1253.24 754.463,1253.24L745.235,1253.24L745.235,1330.14L754.39,1330.14ZM524.922,1308.17L521.846,1284.66L518.77,1308.17L524.922,1308.17ZM437.984,1284.37C441.646,1284.12 443.477,1282.29 443.477,1278.88L443.477,1258.73C443.477,1255.07 441.646,1253.24 437.984,1253.24L428.829,1253.24L428.829,1284.37L437.984,1284.37Z" style="fill:rgb(204,154,204);"/>
        <g>
            <path d="M885.245,957.057C871.84,958.895 858.154,959.845 844.249,959.845C831.038,959.845 818.025,958.988 805.24,957.323L805.24,736.06C816.526,741.669 829.243,744.824 842.692,744.824C858.208,744.824 872.752,740.625 885.245,733.301L885.245,957.057ZM844.414,950.101L816.387,901.557L872.442,901.557L844.414,950.101ZM546.794,624.396L766.468,624.396C761.27,635.34 758.361,647.58 758.361,660.494C758.361,675.696 762.392,689.964 769.441,702.282L547.595,702.282C545.663,688.536 544.665,674.514 544.665,660.261C544.665,648.125 545.388,636.156 546.794,624.396ZM1141.8,625.177C1143.14,636.678 1143.83,648.389 1143.83,660.261C1143.83,674.415 1142.85,688.34 1140.94,701.995L916.106,701.995C923.053,689.743 927.022,675.578 927.022,660.494C927.022,647.887 924.25,635.922 919.282,625.177L1141.8,625.177ZM1136.48,660.494L1087.93,688.521L1087.93,632.466L1136.48,660.494ZM550.32,660.494L598.864,632.466L598.864,688.521L550.32,660.494ZM805.128,363.214C817.927,361.541 830.988,360.678 844.249,360.678C857.939,360.678 871.416,361.598 884.635,363.382L884.635,587.332C872.279,580.227 857.956,576.163 842.692,576.163C829.2,576.163 816.443,579.338 805.128,584.983L805.128,363.214ZM844.414,370.614L872.442,419.158L816.387,419.158L844.414,370.614Z" style="fill:rgb(255,207,97);"/>
        </g>
        <path d="M789.824,954.904C669.644,932.81 574.468,838.897 550.508,719.384L782.354,719.384C784.706,721.794 787.201,724.063 789.824,726.178L789.824,954.904ZM900.848,721.539C901.588,720.835 902.316,720.116 903.03,719.384L1137.99,719.384C1114.17,838.179 1020,931.679 900.848,954.496L900.848,721.539ZM789.824,365.618L789.824,594.809C785.186,598.547 780.951,602.768 777.195,607.393L549.325,607.393C571.19,484.888 667.576,388.088 789.824,365.618ZM900.848,366.027C1022.1,389.258 1117.46,485.649 1139.17,607.393L908.188,607.393C905.912,604.59 903.46,601.936 900.848,599.447L900.848,366.027Z" style="fill:rgb(158,159,208);"/>
        <path d="M655.938,1053.36L707.964,952.974C731.893,964.157 757.408,972.49 784.074,977.539L765.213,1088.41C726.552,1081.08 690.233,1070.19 655.938,1053.36ZM460.238,872.232L562.324,817.446C591.79,870.17 635.605,913.801 688.471,943.042L635.928,1043.52C563.053,1003.16 499.86,945.565 460.238,872.232ZM411.616,744.578L527.345,721.695C532.665,749.256 541.492,775.572 553.347,800.177L448.882,852.459C432.141,818.004 418.782,783.365 411.616,744.578Z" style="fill:rgb(158,159,208);"/>
        <path d="M906.1,1116.14L918.545,1192.19L772.621,1192.19L783.633,1116.14L906.1,1116.14ZM788.356,1089.68L802.867,980.524C816.464,982.275 830.335,983.178 844.414,983.178C857.567,983.178 870.537,982.39 883.256,980.861L900.331,1090.97C883.621,1092.93 866.602,1093.93 849.35,1093.93C828.643,1093.93 808.272,1092.48 788.356,1089.68ZM853.598,1050.35C853.598,1058.52 850.625,1062.61 844.678,1062.61L842.448,1062.61C836.502,1062.61 833.529,1058.52 833.529,1050.35L833.529,1014.67C833.529,1006.49 836.502,1002.4 842.448,1002.4L844.678,1002.4C850.625,1002.4 853.598,1006.49 853.598,1014.67L853.598,1050.35ZM843.608,1009.1C841.348,1009.1 840.219,1010.21 840.219,1012.44L840.219,1052.58C840.219,1054.81 841.348,1055.92 843.608,1055.92C845.808,1055.92 846.908,1054.81 846.908,1052.58L846.908,1012.44C846.908,1010.21 845.808,1009.1 843.608,1009.1ZM1280.49,602.985C1282.87,621.368 1284.1,640.135 1284.1,659.187C1284.1,680.806 1282.52,702.058 1279.46,722.852L1164.26,704.94C1166.28,690.352 1167.33,675.428 1167.33,660.261C1167.33,647.287 1166.56,634.49 1165.07,621.895L1280.49,602.985ZM407.836,605.951L523.641,622.895C522.225,635.158 521.498,647.625 521.498,660.261C521.498,674.394 522.408,688.316 524.171,701.964L408.861,720.22C406.053,700.265 404.602,679.894 404.602,659.187C404.602,641.167 405.701,623.402 407.836,605.951ZM1203.53,645.423C1203.53,637.247 1206.51,633.159 1212.45,633.159L1214.68,633.159C1220.63,633.159 1223.6,637.247 1223.6,645.423L1223.6,681.101C1223.6,689.278 1220.63,693.366 1214.68,693.366L1212.45,693.366C1206.51,693.366 1203.53,689.278 1203.53,681.101L1203.53,677.757L1210.22,677.757L1210.22,683.331C1210.22,685.561 1211.34,686.676 1213.57,686.676C1215.77,686.676 1216.88,685.561 1216.91,683.331L1216.91,669.952C1216.91,670.695 1215.43,671.067 1212.45,671.067C1206.51,671.067 1203.53,666.979 1203.53,658.803L1203.53,645.423ZM1248.13,681.101C1248.13,689.278 1245.16,693.366 1239.21,693.366L1236.98,693.366C1231.04,693.366 1228.06,689.278 1228.06,681.101L1228.06,645.423C1228.06,637.247 1231.04,633.159 1236.98,633.159L1239.21,633.159C1245.16,633.159 1248.13,637.247 1248.13,645.423L1248.13,681.101ZM430.238,678.333L430.238,683.907L443.618,683.907L443.618,690.597L423.549,690.597L423.549,677.218C423.549,672.758 425.779,668.112 430.238,663.281C434.698,658.45 436.928,653.804 436.928,649.344L436.928,640.425C436.928,638.195 435.828,637.08 433.628,637.08C431.368,637.08 430.238,638.195 430.238,640.425L430.238,645.999L423.549,645.999L423.549,642.655C423.549,634.478 426.522,630.39 432.468,630.39L434.698,630.39C440.644,630.39 443.618,634.478 443.618,642.655L443.618,648.229C443.618,654.919 441.388,660.679 436.928,665.511C432.468,670.342 430.238,674.616 430.238,678.333ZM495.351,678.333C495.351,686.509 492.378,690.597 486.431,690.597L484.201,690.597C478.255,690.597 475.282,686.509 475.282,678.333L475.282,642.655C475.282,634.478 478.255,630.39 484.201,630.39L486.431,630.39C492.378,630.39 495.351,634.478 495.351,642.655L495.351,678.333ZM464.133,637.035L448.077,637.08L448.077,630.39L470.822,630.39L470.822,639.711L458.781,690.597L452.091,690.597L464.133,637.035ZM1238.14,639.849C1235.88,639.849 1234.75,640.963 1234.75,643.193L1234.75,683.331C1234.75,685.561 1235.88,686.676 1238.14,686.676C1240.34,686.676 1241.44,685.561 1241.44,683.331L1241.44,643.193C1241.44,640.963 1240.34,639.849 1238.14,639.849ZM485.361,637.08C483.101,637.08 481.972,638.195 481.972,640.425L481.972,680.563C481.972,682.792 483.101,683.907 485.361,683.907C487.561,683.907 488.661,682.792 488.661,680.563L488.661,640.425C488.661,638.195 487.561,637.08 485.361,637.08ZM1213.57,664.377C1215.8,664.377 1216.91,663.262 1216.91,661.032L1216.91,643.193C1216.91,640.963 1215.78,639.849 1213.52,639.849C1211.32,639.849 1210.22,640.963 1210.22,643.193L1210.22,661.032C1210.22,663.262 1211.34,664.377 1213.57,664.377ZM446.425,474.9L550.766,525.832C539.777,549.772 531.631,575.284 526.762,601.931L411.245,582.873C417.816,544.723 430.59,508.976 446.425,474.9ZM525.124,361.497L607.138,441.32C588.899,461.072 573.092,483.106 560.202,506.935L459.465,451.901C477.296,418.013 499.342,389.373 525.124,361.497ZM787.47,228.818C807.706,225.93 828.355,224.439 849.35,224.439C868.594,224.439 887.547,225.692 906.103,228.117L887.506,340.2C873.417,338.317 859.029,337.345 844.414,337.345C830.887,337.345 817.553,338.178 804.463,339.797L787.47,228.818ZM820.886,311.043L820.886,262.878L816.872,262.878L816.872,256.188C819.548,256.188 820.886,254.404 820.886,250.836L827.576,250.836L827.576,311.043L820.886,311.043ZM847.644,279.825C850.618,280.568 852.104,283.541 852.104,288.744L852.104,298.779C852.104,306.955 849.131,311.043 843.185,311.043L840.955,311.043C835.008,311.043 832.035,306.955 832.035,298.779L832.035,288.744C832.035,283.541 833.522,280.568 836.495,279.825C833.522,279.081 832.035,276.108 832.035,270.905L832.035,263.101C832.035,254.924 835.008,250.836 840.955,250.836L843.185,250.836C849.131,250.836 852.104,254.924 852.104,263.101L852.104,270.905C852.104,276.108 850.618,279.081 847.644,279.825ZM876.633,298.779C876.633,306.955 873.66,311.043 867.713,311.043L865.484,311.043C859.537,311.043 856.564,306.955 856.564,298.779L856.564,263.101C856.564,254.924 859.537,250.836 865.484,250.836L867.713,250.836C873.66,250.836 876.633,254.924 876.633,263.101L876.633,298.779ZM842.07,283.17C839.84,283.17 838.725,284.285 838.725,286.514L838.725,301.009C838.725,303.239 839.84,304.353 842.07,304.353C844.3,304.353 845.415,303.239 845.415,301.009L845.415,286.514C845.415,284.285 844.3,283.17 842.07,283.17ZM866.643,257.526C864.383,257.526 863.254,258.641 863.254,260.871L863.254,301.009C863.254,303.239 864.383,304.353 866.643,304.353C868.843,304.353 869.943,303.239 869.943,301.009L869.943,260.871C869.943,258.641 868.843,257.526 866.643,257.526ZM842.07,276.48C844.3,276.331 845.415,275.216 845.415,273.135L845.415,260.871C845.415,258.641 844.315,257.526 842.114,257.526C839.855,257.526 838.725,258.641 838.725,260.871L838.725,273.135C838.725,275.216 839.84,276.331 842.07,276.48Z" style="fill:rgb(255,207,97);"/>
        <path d="M1276.39,741.013C1242.5,918.607 1100.46,1058.01 921.553,1087.95L902.895,977.886C1033.34,953.989 1136.51,851.578 1161.52,721.488L1276.39,741.013Z" style="fill:rgb(158,98,96);"/>
        <path d="M634.56,278.287L686.286,378.7C662.976,391.828 641.455,407.767 622.178,426.07L543.17,344.006C570.523,317.247 600.924,297.136 634.56,278.287ZM759.522,233.725L782.113,343.361C755.152,348.641 729.389,357.279 705.264,368.826L661.417,266.229C695.465,249.216 721.112,241.334 759.522,233.725ZM929.67,232.607C969.003,239.297 999.544,249.279 1034.53,265.797L982.848,368.484C958.469,356.887 932.413,348.255 905.144,343.057L929.67,232.607Z" style="fill:rgb(255,160,1);"/>
        <path d="M655.038,1070.27C687.376,1084.71 721.718,1095.57 757.546,1102.33L762.965,1104.03L749.016,1192.19L586.511,1192.19L648.376,1068.19L655.038,1070.27ZM444.499,880.288C487.233,955.008 551.07,1016.57 628.041,1057.14L629.334,1058.24L563.149,1191.91L394.956,1192.19L394.956,903.634L443.364,879.412L444.499,880.288ZM399.321,768.145C407.292,799.946 418.708,830.42 433.154,859.158L394.956,878.412L394.956,769.369L399.321,768.145Z" style="fill:rgb(158,159,208);"/>
        <path d="M1241.39,471.164C1258.08,505.874 1270.3,543.133 1277.29,582.184L1162.29,603.172C1157.31,575.321 1148.76,548.703 1137.13,523.818L1241.39,471.164ZM1161.55,356.759C1189.03,385.117 1210.6,413.209 1229.58,448.188L1127.66,505.169C1114.36,480.942 1098.04,458.602 1079.19,438.645L1161.55,356.759ZM1055.84,275.974C1090.45,294.358 1116.29,314.283 1144.58,340.968L1065.84,425.298C1046.07,406.658 1023.95,390.483 999.97,377.267L1055.84,275.974Z" style="fill:rgb(208,98,2);"/>
    </g>
</svg>
